<?xml version="1.0" encoding="UTF-8" standalone="no"?>
<svg
   xmlns:dc="http://purl.org/dc/elements/1.1/"
   xmlns:cc="http://creativecommons.org/ns#"
   xmlns:rdf="http://www.w3.org/1999/02/22-rdf-syntax-ns#"
   xmlns:svg="http://www.w3.org/2000/svg"
   xmlns="http://www.w3.org/2000/svg"
   xmlns:sodipodi="http://sodipodi.sourceforge.net/DTD/sodipodi-0.dtd"
   xmlns:inkscape="http://www.inkscape.org/namespaces/inkscape"
   width="557pt"
   height="873pt"
   viewBox="0 0 557 873"
   version="1.1"
   id="svg2"
   inkscape:version="0.48.4 r9939"
   sodipodi:docname="final.svg">
  <metadata
     id="metadata186">
    <rdf:RDF>
      <cc:Work
         rdf:about="">
        <dc:format>image/svg+xml</dc:format>
        <dc:type
           rdf:resource="http://purl.org/dc/dcmitype/StillImage" />
      </cc:Work>
    </rdf:RDF>
  </metadata>
  <defs
     id="defs184" />
  <sodipodi:namedview
     pagecolor="#ffffff"
     bordercolor="#666666"
     borderopacity="1"
     objecttolerance="10"
     gridtolerance="10"
     guidetolerance="10"
     inkscape:pageopacity="0"
     inkscape:pageshadow="2"
     inkscape:window-width="1366"
     inkscape:window-height="709"
     id="namedview182"
     showgrid="false"
     inkscape:zoom="0.6116919"
     inkscape:cx="346.32893"
     inkscape:cy="439.55159"
     inkscape:window-x="0"
     inkscape:window-y="27"
     inkscape:window-maximized="1"
     inkscape:current-layer="svg2" />
  <path
     fill="#0a0a0a"
     d=" M 504.37 2.32 C 510.55 2.01 516.77 2.10 522.97 2.34 C 518.53 15.03 515.26 28.11 509.94 40.52 C 509.62 43.74 508.06 46.54 506.40 49.24 C 504.06 49.40 501.79 49.96 499.56 50.62 C 497.85 53.41 496.22 56.44 493.41 58.27 C 489.34 59.52 484.32 59.92 481.74 63.77 C 479.69 67.01 477.52 70.19 475.55 73.48 C 474.61 72.47 473.65 71.49 472.68 70.52 C 472.55 68.74 472.81 66.88 472.28 65.15 C 471.11 63.53 469.70 61.99 469.49 59.91 C 471.91 58.78 474.22 57.42 476.47 55.96 C 475.74 54.86 474.99 53.76 474.26 52.66 C 477.22 52.20 480.63 53.19 483.13 51.14 C 484.79 49.96 486.34 48.62 487.65 47.05 C 488.26 44.34 486.36 42.23 485.53 39.85 C 485.46 38.06 485.19 36.13 485.87 34.43 C 491.61 23.50 498.15 12.89 504.37 2.32 Z"
     id="path6"
     style="fill:#000000;stroke:#000000" />
  <path
     fill="#0d0d0d"
     d=" M 285.88 58.56 C 288.57 57.80 290.74 59.40 292.76 60.95 C 294.18 60.13 295.66 58.88 297.43 59.44 C 298.54 60.21 299.55 61.11 300.52 62.06 C 301.00 63.77 299.80 65.27 299.23 66.79 C 301.24 68.95 300.89 71.81 298.64 73.62 C 294.85 73.09 291.41 74.71 287.82 75.55 C 286.26 77.58 285.03 79.80 285.39 82.44 C 284.27 83.16 283.17 83.91 282.08 84.69 C 281.00 84.08 279.92 83.50 278.83 82.93 C 277.23 84.48 276.16 88.80 273.29 87.10 C 270.68 84.63 267.07 85.46 263.83 85.49 C 263.24 84.04 261.46 82.34 262.68 80.76 C 264.23 78.98 265.83 77.20 265.74 74.68 C 267.02 74.35 268.30 74.01 269.58 73.66 C 269.55 72.08 269.52 70.50 269.49 68.92 C 270.23 68.28 270.97 67.64 271.72 67.01 C 270.95 65.21 270.34 63.35 269.99 61.42 C 273.41 61.39 276.83 61.21 280.18 60.47 C 280.72 62.02 281.28 63.57 281.84 65.12 C 283.34 63.04 284.86 60.94 285.88 58.56 Z"
     id="path8"
     style="fill:#000000;stroke:#000000" />
  <path
     fill="#0d0d0d"
     d=" M 357.29 62.58 C 357.90 61.35 357.92 59.64 359.19 58.84 C 360.42 58.61 361.66 58.55 362.92 58.66 C 364.24 59.83 364.90 61.51 365.81 62.98 C 367.24 62.42 368.66 61.85 370.09 61.26 C 371.14 62.22 372.21 63.17 373.31 64.09 C 373.50 67.30 373.72 70.51 373.57 73.73 C 374.09 73.68 375.13 73.60 375.65 73.56 C 376.35 72.28 377.04 70.99 377.74 69.70 C 380.17 69.17 382.57 68.51 385.06 68.31 C 385.62 69.34 386.18 70.37 386.74 71.41 C 388.83 72.02 391.33 72.36 392.57 74.41 C 392.92 75.79 391.52 76.91 391.09 78.15 C 391.65 79.38 392.25 80.61 392.83 81.84 C 390.88 84.00 390.51 86.85 390.36 89.63 C 385.52 89.36 380.67 89.64 375.83 89.54 C 375.55 88.16 375.31 86.78 375.03 85.41 C 373.40 85.40 371.76 85.50 370.14 85.33 C 368.17 84.01 366.09 82.88 363.83 82.14 C 363.36 81.23 362.90 80.32 362.44 79.41 C 360.28 81.13 357.74 82.04 354.96 81.69 C 354.21 82.85 353.51 84.05 352.69 85.16 C 350.55 86.08 348.11 85.58 345.85 85.70 C 344.67 84.10 343.43 82.55 342.17 81.02 C 343.62 78.25 346.06 76.35 348.35 74.40 C 349.34 69.44 351.65 63.54 357.29 62.58 Z"
     id="path10"
     style="fill:#000000;stroke:#000000" />
  <path
     fill="#0a0a0a"
     d=" M 491.00 72.07 C 495.79 71.28 497.57 64.56 502.86 65.42 C 492.39 81.44 482.89 98.11 471.40 113.42 C 468.25 117.29 461.85 117.23 459.80 122.08 C 458.49 126.41 460.22 130.93 462.43 134.66 C 465.40 140.59 472.39 143.61 474.50 150.04 C 475.10 151.96 472.55 152.96 471.01 152.65 C 467.56 152.92 464.22 152.05 460.98 151.00 C 457.09 149.62 453.12 151.35 449.21 151.59 C 449.70 151.88 450.19 152.18 450.69 152.48 C 446.80 153.63 442.65 153.10 438.80 154.44 C 435.57 154.96 432.20 154.96 428.99 154.32 C 425.07 153.02 420.90 153.45 416.85 153.46 C 415.60 155.60 414.37 157.83 412.47 159.49 C 410.35 159.91 408.17 159.62 406.04 159.61 C 407.27 157.77 409.29 156.04 408.39 153.58 C 407.81 153.55 406.65 153.48 406.07 153.44 C 396.18 158.10 387.86 165.65 377.38 169.09 C 376.70 172.49 380.57 174.63 379.54 178.05 C 377.81 179.70 375.63 180.71 373.51 181.74 C 373.48 183.53 373.47 185.32 373.49 187.12 C 372.34 188.30 371.22 189.51 370.00 190.61 C 367.52 190.53 365.22 189.48 362.79 189.13 C 362.59 190.95 362.45 192.78 362.32 194.61 C 358.93 196.48 355.46 194.46 351.97 194.30 C 351.21 195.28 350.61 196.36 349.97 197.41 C 348.43 197.30 346.77 197.56 345.35 196.80 C 341.85 195.14 338.06 194.17 334.70 192.19 C 334.10 189.80 333.62 187.34 332.37 185.18 C 331.61 185.62 330.09 186.50 329.33 186.94 C 330.35 188.84 331.89 190.71 331.56 193.02 C 331.73 194.83 329.84 195.94 328.81 197.18 C 324.79 197.76 320.42 197.72 316.57 196.29 C 315.24 194.94 314.90 192.98 314.26 191.28 C 309.93 190.69 306.25 193.72 301.92 193.66 C 300.80 197.24 299.53 200.92 296.46 203.35 C 294.47 203.79 292.40 203.70 290.40 203.51 C 288.67 202.41 287.83 200.31 286.02 199.33 C 281.20 202.56 275.25 202.96 270.01 205.23 C 271.82 203.42 273.26 201.04 275.73 200.04 C 278.73 198.76 281.84 197.74 284.95 196.77 C 286.93 194.03 282.01 191.90 282.53 189.02 C 283.12 187.17 284.34 185.49 285.94 184.39 C 287.71 184.04 289.42 184.65 290.96 185.50 C 292.82 184.16 295.12 184.37 297.30 184.32 C 298.17 186.30 298.64 188.41 298.88 190.56 C 301.70 189.16 304.83 188.57 307.68 187.24 C 308.47 184.31 305.29 184.22 303.38 183.37 C 304.75 180.84 305.28 178.00 305.81 175.21 C 307.54 175.62 309.22 176.22 310.98 176.57 C 313.71 175.69 316.84 174.62 319.31 176.75 C 319.50 178.37 319.62 180.01 319.76 181.65 C 320.46 181.65 321.86 181.66 322.56 181.66 C 322.59 180.46 322.63 179.26 322.67 178.07 C 324.15 176.81 325.62 175.55 327.11 174.30 C 325.82 172.96 324.52 171.63 323.49 170.08 C 322.99 168.26 324.20 166.67 324.81 165.06 C 321.41 162.21 322.49 157.82 322.65 153.96 C 325.29 153.13 327.63 150.69 330.58 151.39 C 332.26 152.73 333.73 154.33 335.31 155.80 C 335.56 153.68 335.67 151.54 335.85 149.42 C 341.21 148.22 346.88 149.12 352.00 146.93 C 355.66 146.45 359.41 146.35 363.10 146.58 C 364.43 147.44 364.50 149.04 364.75 150.44 C 367.32 150.86 369.88 151.34 372.47 151.63 C 372.54 153.68 372.54 155.73 372.60 157.78 C 373.14 157.60 374.20 157.24 374.73 157.06 C 380.71 152.38 387.60 149.13 394.16 145.39 C 399.14 143.12 404.39 141.45 409.02 138.45 C 412.46 138.05 416.15 137.84 419.36 139.39 C 425.89 141.88 432.93 143.28 439.89 142.14 C 442.49 140.74 441.24 137.35 441.53 134.96 C 442.04 129.51 435.26 126.49 436.56 120.96 C 437.68 115.35 445.18 114.72 446.66 109.42 C 447.15 108.19 447.54 106.92 447.90 105.64 C 450.08 105.32 452.29 105.08 454.42 104.43 C 458.22 101.17 460.76 96.77 463.10 92.42 C 463.44 87.53 466.03 83.25 466.26 78.31 C 467.31 78.34 468.37 78.37 469.43 78.40 C 470.66 80.52 471.64 82.91 473.44 84.62 C 476.30 85.47 478.11 82.62 480.01 81.01 C 483.51 77.89 486.18 73.31 491.00 72.07 Z"
     id="path12"
     style="fill:#000000;stroke:#000000" />
  <path
     d="m 220.08,84.66 c 1.42,-2.49 2.72,-5.69 5.91,-6.25 2.12,0.89 3.53,2.85 5.13,4.42 1.64,-0.75 3.27,-1.54 4.92,-2.3 0.59,0.25 1.77,0.74 2.36,0.99 0.42,1.27 0.85,2.53 1.27,3.8 1.77,1.38 5.43,1.76 4.89,4.68 0.11,2.36 -2.27,3.76 -3.47,5.51 3.25,2.49 5.84,-2.17 9.33,-1.29 0.01,1.91 -0.07,3.83 0.04,5.74 0.82,1.99 2.64,3.73 2.15,6.05 0.12,2.14 -1.65,3.64 -2.61,5.36 0.71,-0.06 2.14,-0.18 2.86,-0.24 5.64,-3.77 11.25,-7.6 16.73,-11.6 4.14,-3.77 8.06,-7.81 12.3,-11.47 4.53,-2.07 9.42,-3.06 14.14,-4.58 4.98,-0.4 10,-0.3 14.99,-0.13 4.73,0.91 9.09,3.21 13.8,4.22 5.34,1.51 10.49,4.57 16.19,4.16 1.38,-0.67 2.64,-1.55 3.96,-2.32 3.56,3.55 8.7,1.62 13.12,2.44 5.55,1.59 11.03,4.06 16.91,3.91 7.02,0.01 14.04,0.11 21.07,-0.08 -0.48,-1.59 -0.98,-3.17 -1.52,-4.74 1.51,-1.66 2.7,-3.58 3.46,-5.69 1.01,0.66 2.03,1.29 3.07,1.92 1.25,-0.61 2.5,-1.21 3.77,-1.8 3.54,2.17 7.85,2.14 11.87,2.1 -0.14,2.97 0.08,6.06 -1.52,8.71 5.59,-0.05 11.5,1.13 16.79,-1.19 2.78,-1.08 5.85,-0.87 8.75,-1.41 5.52,-1.13 9.69,-5.08 14.39,-7.88 0.9,-0.16 2.72,-0.47 3.63,-0.63 -1.58,5.8 -5.07,11.07 -9.17,15.44 -3.43,-0.31 -6.66,0.6 -9.75,1.99 -4.39,0.05 -8.76,0.55 -12.97,1.86 -4.41,0.51 -8.88,0.31 -13.3,0.1 -0.43,1.67 -0.88,3.34 -1.28,5.02 -3.01,-0.31 -6.2,0.63 -9.09,-0.16 -2.53,-2.19 -6.32,-2.51 -7.78,-5.85 -6.48,-0.08 -13,0.28 -19.42,-0.76 -2.99,0.2 -5.95,1.37 -8.96,0.88 -1.38,-0.94 -2.6,-2.1 -4.04,-2.93 -10.31,-0.68 -20.66,0.39 -30.99,-0.13 -7.65422,-8.813093 13.38,-4.388342 20.07,-2.376372 1.6956,-1.392781 2.9,1.406372 4.2,0.646372 -8.41,-0.64 -16.87,0.51 -25.26,-0.4 -1.63,-1.12 -2.99,-2.55 -4.56,-3.73 -5.3,-1.1 -10.45,-2.83 -15.44,-4.93 -5.33,-0.26 -10.73,-0.32 -16.05,0.04 -5.54,1.96 -10.94,4.89 -14.94,9.25 3.02,2.86 6.62,5.24 8.85,8.84 -1.38,1.22 -3.81,1.87 -3.62,4.13 1.09,1.8 2.43,3.41 3.65,5.13 -2.09,1.82 -4.31,3.61 -6.93,4.59 -1.76,0.02 -3.52,-0.2 -5.27,-0.31 1.27,1.4 2.56,2.79 3.91,4.13 -0.01,0.99 0,1.99 0.01,2.98 -1.99,0.5 -4,0.9 -6.03,1.15 -1.13,1.34 -2.3,2.65 -3.45,3.97 -1.86,-0.08 -3.72,-0.13 -5.57,-0.2 -0.07,-1.96 -0.11,-3.92 -0.15,-5.88 -1.36,-1.06 -2.7,-2.15 -4.06,-3.21 -1.04,-3.5 2.73,-4.79 4.16,-7.3 0.02,-2.4 -0.12,-4.79 -0.26,-7.18 -2.71,1.4 -5.16,3.24 -7.88,4.63 -0.37,1.78 -0.72,3.57 -0.95,5.38 -1.39,0.29 -2.79,0.53 -4.18,0.8 0.79,1.45 1.58,2.91 2.35,4.37 -1.03,1.13 -2.04,2.28 -3.02,3.44 -1.52,-0.02 -3.05,-0.08 -4.56,-0.01 -2.37,0.93 -4.2,3.46 -6.97,3.03 -2.58,0.1 -4.35,-3.09 -7.07,-2.08 -3.45,1.41 -6.1,4.9 -10.2,4.17 -0.91,-1.54 -2.06,-3.53 -0.27,-4.95 2.87,-2.24 6.39,-3.98 10.07,-4.33 0,-1.08 0.01,-2.16 0.03,-3.23 -1.45,-0.34 -2.9,-0.61 -4.35,-0.89 1.22,-2.35 2.08,-5.06 0.44,-7.48 1.16,-1.53 2.3,-3.07 3.36,-4.67 -2.71,0.21 -5.37,2.28 -8.04,0.96 -1.97,-1.11 -4.08,-0.15 -6.06,0.34 -3.02,-3.09 -3.97,-7.55 -7.62,-10.15 0.08,-1.45 0.15,-2.9 0.22,-4.35 1.45,-0.44 2.9,-0.89 4.36,-1.35 -2.02,-2.3 -3.59,-5.35 -2.25,-8.42 1.41,-3.14 5.06,-1.14 7.4,-0.42 z"
     id="path14"
     style="fill:#000000;stroke:#000000"
     inkscape:connector-curvature="0"
     sodipodi:nodetypes="ccccccccccccccccccccccccccccccccccccccccccccccccccccccccccccccccccccccccccccccccccccccc" />
  <path
     fill="#0c0c0c"
     d=" M 309.29 113.59 C 309.42 111.56 310.18 108.26 312.93 109.58 C 315.42 111.95 317.41 114.79 319.93 117.14 C 319.05 118.54 318.13 119.90 317.18 121.24 C 317.70 122.47 318.24 123.70 318.75 124.94 C 318.21 126.00 317.66 127.05 317.12 128.11 C 317.86 128.77 318.60 129.44 319.35 130.11 C 319.10 130.49 318.60 131.26 318.35 131.64 C 314.89 130.38 312.50 132.79 310.84 135.50 C 308.47 134.06 305.88 133.19 303.07 133.50 C 301.04 133.91 299.80 132.08 298.43 130.97 C 299.18 129.97 299.94 128.98 300.71 128.00 C 299.34 125.83 298.06 123.54 298.37 120.88 C 299.79 120.60 301.22 120.36 302.64 120.09 C 302.62 117.89 302.56 115.70 302.52 113.50 C 304.77 113.49 307.03 113.54 309.29 113.59 Z"
     id="path16"
     style="fill:#000000;stroke:#000000" />
  <path
     fill="#0c0c0c"
     d=" M 197.62 111.56 C 200.29 111.54 203.13 111.08 205.54 112.53 C 208.05 114.16 212.09 112.23 213.44 115.65 C 215.35 116.02 217.27 116.32 219.21 116.58 C 219.95 118.12 220.77 119.62 221.62 121.11 C 219.34 124.08 216.99 127.02 215.11 130.27 C 213.93 132.05 214.87 134.71 216.85 135.46 C 220.94 137.82 226.30 139.31 228.06 144.23 C 226.86 144.48 225.67 144.74 224.48 145.00 C 224.20 146.73 225.15 149.10 223.67 150.38 C 220.08 151.61 216.25 151.71 212.50 151.34 C 212.27 153.40 213.20 155.99 211.59 157.64 C 210.31 159.40 208.26 160.21 206.35 161.06 C 207.16 163.86 209.85 164.82 212.51 164.76 C 212.58 168.16 211.93 171.59 212.62 174.96 C 213.31 177.03 216.45 178.30 215.34 180.76 C 213.33 182.26 211.29 183.78 209.87 185.89 C 207.45 184.37 204.93 183.04 202.34 181.85 C 202.30 180.02 202.34 178.19 202.49 176.38 C 200.62 175.11 198.75 173.80 197.24 172.11 C 196.59 169.08 199.04 167.11 200.82 165.10 C 196.62 163.75 192.00 165.31 187.98 163.27 C 186.11 162.34 186.57 160.19 186.34 158.47 C 185.58 157.96 184.83 157.46 184.07 156.96 C 184.96 153.75 188.49 152.62 190.77 150.57 C 190.71 149.43 190.59 148.30 190.41 147.19 C 189.93 146.59 189.44 146.00 188.95 145.43 C 189.22 144.62 189.49 143.82 189.77 143.01 C 189.28 143.03 188.32 143.06 187.83 143.07 L 187.04 143.09 C 189.10 142.55 191.14 141.94 193.10 141.09 C 188.94 138.45 185.07 135.52 181.52 132.09 C 183.37 128.51 182.26 124.50 182.40 120.67 C 183.15 120.57 184.65 120.36 185.40 120.25 C 185.44 119.06 185.48 117.86 185.51 116.67 C 188.12 115.98 190.55 114.81 192.92 113.53 C 194.37 114.39 195.83 115.27 197.30 116.12 C 197.41 114.60 197.51 113.08 197.62 111.56 Z"
     id="path18"
     style="stroke:#000000;fill:#000000" />
  <path
     fill="#080808"
     d=" M 338.93 120.74 C 340.75 117.70 345.97 117.08 347.73 120.44 C 350.34 120.46 353.00 120.45 355.51 121.33 C 355.55 123.54 355.58 125.76 355.55 127.97 C 356.55 128.97 357.55 129.97 358.56 130.97 C 357.77 134.78 359.45 139.01 357.19 142.43 C 355.35 142.44 353.52 142.46 351.69 142.53 C 349.08 146.44 343.85 143.34 340.23 145.06 C 335.91 147.93 330.59 146.15 325.75 146.63 C 325.13 145.09 324.50 143.55 323.83 142.03 C 323.10 143.53 322.48 145.08 321.97 146.67 C 319.04 145.33 315.95 144.34 312.70 144.36 C 312.04 142.41 311.27 140.50 310.35 138.66 C 313.93 137.56 316.68 134.95 318.35 131.64 C 318.60 131.26 319.10 130.49 319.35 130.11 C 319.84 129.85 320.83 129.33 321.32 129.07 C 322.12 126.97 322.62 124.78 322.73 122.53 C 324.49 122.54 326.25 122.58 328.02 122.48 C 329.92 121.33 331.37 119.59 332.91 118.02 C 334.96 118.82 336.94 119.80 338.93 120.74 Z"
     id="path20"
     style="fill:#000000;stroke:#000000" />
  <path
     fill="#0c0c0c"
     d=" M 149.42 136.80 C 152.27 136.15 155.10 135.44 157.88 134.58 C 158.88 135.55 159.88 136.52 160.88 137.49 C 162.21 136.81 163.39 135.62 164.95 135.51 C 166.88 136.22 168.72 137.18 170.65 137.93 C 170.60 138.11 170.51 138.46 170.46 138.63 C 169.61 142.05 168.41 145.69 169.52 149.20 C 169.90 150.45 170.13 152.27 171.90 151.89 C 173.19 151.46 174.39 150.82 175.61 150.24 C 175.58 151.11 175.55 151.99 175.52 152.86 C 175.29 155.09 176.00 157.81 174.02 159.44 C 170.93 160.01 167.57 160.06 165.03 157.96 C 162.40 159.33 159.80 160.78 157.08 161.96 C 153.20 163.61 149.33 165.35 145.21 166.33 C 145.79 165.52 146.38 164.73 146.99 163.95 C 149.70 161.69 152.99 160.35 156.27 159.16 C 156.68 158.62 157.52 157.53 157.94 156.98 C 153.21 155.52 151.85 150.13 147.48 148.30 C 147.08 146.91 146.59 145.52 146.54 144.07 C 147.16 142.85 148.46 142.26 149.47 141.43 C 149.43 139.88 149.42 138.34 149.42 136.80 Z"
     id="path22"
     style="fill:#000000;stroke:#000000" />
  <path
     fill="#1b1b1b"
     d=" M 169.52 149.20 C 168.41 145.69 169.61 142.05 170.46 138.63 C 172.83 141.77 170.52 146.13 171.46 149.78 C 177.41 148.93 182.49 145.58 187.83 143.07 C 188.32 143.06 189.28 143.03 189.77 143.01 C 189.49 143.82 189.22 144.62 188.95 145.43 C 189.44 146.00 189.93 146.59 190.41 147.19 C 185.06 147.67 180.49 151.02 175.52 152.86 C 175.55 151.99 175.58 151.11 175.61 150.24 C 174.39 150.82 173.19 151.46 171.90 151.89 C 170.13 152.27 169.90 150.45 169.52 149.20 Z"
     id="path24"
     style="fill:#000000;stroke:#000000" />
  <path
     fill="#0c0c0c"
     d=" M 437.05 161.77 C 440.17 162.14 442.76 158.80 445.85 159.88 C 445.10 163.29 442.21 165.74 439.86 168.15 C 435.48 169.12 430.84 168.42 426.36 168.53 C 426.21 174.37 426.40 180.21 426.37 186.05 C 426.60 189.37 424.78 192.33 422.99 194.95 C 418.26 199.30 412.12 201.66 406.05 203.46 C 399.43 204.81 393.88 208.85 388.21 212.29 C 386.05 213.70 384.24 215.62 382.77 217.73 C 382.02 220.77 382.24 224.01 381.26 227.01 C 379.88 229.64 377.39 231.42 374.99 233.05 C 372.47 234.67 370.19 236.69 367.37 237.81 C 365.92 234.37 363.94 230.87 364.64 227.00 C 366.78 218.89 371.18 211.64 375.82 204.74 C 377.28 202.47 379.87 201.40 382.09 200.03 C 385.34 198.33 387.71 195.45 390.03 192.69 C 393.26 192.62 396.52 192.85 399.74 192.51 C 404.49 190.19 409.53 187.56 412.44 182.95 C 413.86 177.70 407.09 173.79 408.96 168.59 C 411.01 168.62 413.06 168.59 415.12 168.57 C 417.32 166.04 418.58 162.63 421.04 160.44 C 426.45 159.64 431.59 162.59 437.05 161.77 Z"
     id="path26"
     style="fill:#000000;stroke:#000000" />
  <path
     fill="#0d0d0d"
     d=" M 133.32 188.93 C 137.12 189.27 138.86 185.65 141.78 184.22 C 143.11 185.52 144.12 187.10 144.99 188.73 C 147.03 188.13 148.45 186.50 149.96 185.11 C 151.27 186.01 152.59 186.92 153.89 187.83 C 155.54 187.09 157.16 186.07 159.05 186.34 C 161.65 188.03 161.98 191.19 162.35 194.00 C 162.76 196.14 160.84 197.63 159.90 199.32 C 162.06 199.45 164.23 199.56 166.39 199.64 C 166.46 200.22 166.54 200.80 166.61 201.38 C 170.87 201.29 174.66 203.48 178.82 204.01 C 183.63 206.02 189.07 206.82 193.29 210.03 C 195.29 210.90 197.39 211.48 199.48 212.10 C 196.84 215.35 194.05 218.50 190.82 221.18 C 190.43 219.57 190.06 217.96 189.77 216.34 C 190.51 216.39 191.99 216.49 192.73 216.54 C 192.56 215.63 192.40 214.73 192.25 213.83 C 187.52 213.27 183.35 210.80 178.69 209.99 C 172.94 207.48 166.76 206.21 160.97 203.81 C 159.21 203.23 157.46 204.14 155.76 204.52 C 156.01 207.31 154.20 209.15 152.11 210.68 C 150.21 209.52 148.27 208.44 146.28 207.46 C 144.80 208.81 143.49 211.43 141.09 210.40 C 139.26 208.89 138.07 206.82 137.22 204.65 C 136.16 204.17 135.10 203.69 134.04 203.22 C 134.33 202.01 134.62 200.80 134.90 199.59 C 126.25 199.12 117.60 199.51 108.94 199.54 C 106.78 199.42 104.90 200.60 102.92 201.25 C 100.19 202.16 97.02 200.86 94.48 202.48 C 92.00 204.19 88.87 203.54 86.05 203.70 C 85.73 204.29 85.42 204.88 85.12 205.48 C 82.67 205.64 80.22 205.74 77.77 205.65 C 78.48 203.73 80.53 203.56 82.26 203.26 C 82.78 202.13 83.31 201.01 83.83 199.89 C 85.02 200.54 86.19 201.22 87.37 201.89 C 87.42 198.31 86.95 194.60 88.34 191.20 C 92.84 191.44 97.28 193.82 99.66 197.71 C 104.78 197.27 110.00 197.71 114.98 196.14 C 115.39 195.25 115.84 194.39 116.33 193.55 C 118.89 192.53 121.47 194.19 124.02 194.43 C 127.92 194.71 131.83 194.72 135.73 194.64 C 134.33 193.01 133.37 191.11 133.32 188.93 Z"
     id="path30"
     style="fill:#000000;stroke:#000000" />
  <path
     fill="#090909"
     d=" M 209.49 193.09 C 211.77 192.99 213.46 194.54 215.32 195.60 C 218.61 195.47 221.89 195.21 225.19 195.23 C 227.35 196.97 228.48 199.48 228.79 202.21 C 230.18 202.32 231.57 202.40 232.95 202.63 C 235.28 204.67 237.11 207.26 238.67 209.91 C 239.26 211.92 237.17 213.24 236.66 215.01 C 237.19 217.13 237.67 219.32 236.69 221.40 C 234.76 221.60 232.64 221.13 230.87 222.04 L 230.30 222.41 C 230.31 227.12 228.77 232.50 231.85 236.59 C 230.14 238.63 227.61 238.71 225.13 238.62 C 226.00 240.85 227.65 242.71 228.39 244.99 C 228.80 248.64 224.46 249.61 221.92 250.91 C 220.14 252.63 218.64 254.62 217.07 256.54 C 215.39 256.53 213.72 256.54 212.05 256.55 C 211.11 255.00 210.32 253.30 208.96 252.07 C 206.91 250.89 204.51 250.57 202.26 249.96 C 201.35 246.86 199.56 244.13 198.47 241.11 C 199.66 237.52 202.75 235.07 204.83 232.02 C 206.23 230.59 204.46 228.72 204.21 227.16 C 201.10 229.07 199.23 232.23 196.84 234.85 C 194.10 236.67 189.80 236.38 188.34 233.05 L 187.83 232.39 C 184.50 232.03 180.01 233.99 177.61 231.05 C 177.57 227.35 176.83 223.19 179.54 220.21 C 178.53 218.78 178.09 217.12 178.16 215.38 C 181.96 215.17 185.78 215.18 189.58 215.32 L 189.77 216.34 C 190.06 217.96 190.43 219.57 190.82 221.18 C 194.05 218.50 196.84 215.35 199.48 212.10 C 197.39 211.48 195.29 210.90 193.29 210.03 C 194.64 210.31 195.99 210.55 197.35 210.77 C 199.55 206.79 199.74 202.44 199.46 198.01 C 200.12 197.62 201.42 196.84 202.08 196.45 C 203.38 196.82 204.69 197.16 206.02 197.47 C 207.87 196.72 208.43 194.60 209.49 193.09 Z"
     id="path32"
     style="fill:#000000;stroke:#000000" />
  <path
     fill="#0c0c0c"
     d=" M 366.62 195.60 C 368.89 195.29 371.20 195.39 373.49 195.39 C 372.31 197.28 371.27 199.25 370.13 201.16 C 368.38 203.97 365.16 205.59 363.82 208.69 C 359.41 219.12 358.34 230.85 359.96 242.01 C 364.02 251.52 371.27 259.25 378.05 266.93 C 386.85 275.79 395.61 284.68 404.49 293.47 C 406.55 295.14 406.32 297.95 406.56 300.33 C 412.82 306.15 418.95 312.11 425.07 318.09 C 427.26 315.68 429.55 313.35 432.01 311.20 C 433.85 312.27 434.93 314.08 435.87 315.93 C 437.78 315.47 439.64 314.81 441.52 314.22 C 442.44 315.42 443.36 316.64 444.26 317.89 C 445.80 317.08 447.24 315.90 449.02 315.66 C 451.46 315.18 452.80 317.68 454.56 318.89 C 452.54 321.88 453.72 325.18 454.89 328.22 C 453.45 328.67 452.03 329.12 450.60 329.56 C 450.29 330.81 449.95 332.06 449.60 333.32 C 448.46 333.73 447.34 334.15 446.22 334.59 C 446.25 335.56 446.33 336.53 446.46 337.50 C 449.21 340.45 452.36 343.03 455.04 346.06 C 456.56 348.01 457.79 350.17 459.14 352.25 C 456.31 351.76 453.12 351.35 450.72 353.29 L 450.28 353.84 C 446.79 357.26 449.53 362.38 447.46 366.34 C 446.48 359.70 447.75 352.98 446.91 346.33 C 446.59 346.04 445.95 345.47 445.62 345.19 C 445.16 344.81 444.22 344.05 443.75 343.68 C 443.62 342.58 443.49 341.48 443.38 340.39 C 440.22 340.25 437.05 340.35 433.89 340.49 C 432.95 339.42 432.01 338.35 431.08 337.29 C 429.09 337.54 427.12 337.87 425.13 338.07 C 421.45 336.96 421.31 332.85 421.48 329.67 C 420.11 329.35 418.76 328.99 417.42 328.62 C 417.11 327.95 416.50 326.62 416.19 325.96 C 417.45 324.31 418.71 322.65 419.95 320.99 C 408.50 311.19 398.32 300.03 387.53 289.53 C 385.41 287.16 381.97 287.25 379.46 285.52 C 377.43 284.31 375.40 282.58 375.39 280.02 C 372.41 270.85 364.58 264.61 358.16 257.86 C 354.73 253.23 351.00 248.61 349.39 242.99 C 349.30 237.28 348.48 231.30 350.71 225.88 C 352.03 222.44 350.67 218.56 352.27 215.19 C 353.43 212.70 353.45 209.96 353.63 207.27 C 354.32 204.92 355.60 202.79 356.39 200.47 C 358.27 200.50 360.17 200.60 362.05 200.37 C 364.41 199.67 364.82 196.91 366.62 195.60 Z"
     id="path34"
     style="fill:#000000;stroke:#000000" />
  <path
     fill="#0a0a0a"
     d=" M 335.02 203.65 C 337.63 204.03 339.23 201.60 341.09 200.21 C 342.69 200.92 344.29 201.63 345.90 202.33 C 345.32 204.70 343.32 206.16 341.35 207.36 C 337.71 209.51 334.50 212.41 331.99 215.81 C 330.38 220.95 328.95 226.20 329.41 231.66 C 328.42 231.70 327.44 231.75 326.46 231.82 C 326.91 228.69 327.19 225.22 324.06 223.40 C 321.63 225.84 319.05 228.13 316.84 230.77 C 315.45 233.69 316.27 237.46 314.05 240.02 C 311.62 241.70 308.85 242.81 306.21 244.12 C 302.68 245.81 300.78 249.67 300.20 253.38 C 299.67 253.48 299.14 253.58 298.62 253.69 C 298.89 257.89 297.68 261.90 296.64 265.92 C 296.10 271.93 296.63 277.99 296.29 284.02 C 294.48 289.98 290.74 295.08 286.95 299.94 C 285.06 301.82 285.72 304.65 285.37 307.04 C 283.41 308.13 281.18 308.92 279.62 310.58 C 279.02 312.08 278.68 313.68 278.07 315.19 C 271.69 323.32 261.70 327.27 254.53 334.48 C 254.53 336.99 254.63 339.52 254.41 342.03 C 251.93 348.31 248.72 354.43 243.54 358.92 C 243.74 361.11 242.91 363.64 244.36 365.55 C 245.88 367.74 247.34 369.98 248.90 372.16 C 251.37 374.43 255.01 373.18 258.02 373.59 C 258.99 374.45 259.06 376.20 258.10 377.11 C 255.66 379.78 254.24 383.12 252.27 386.12 C 252.91 387.40 253.60 388.67 254.28 389.94 C 251.73 392.54 248.97 394.93 246.46 397.57 C 245.03 401.20 244.47 405.13 243.73 408.95 C 243.31 418.47 243.23 428.10 245.30 437.46 C 246.07 442.72 244.82 448.25 247.17 453.24 C 247.88 458.20 247.49 463.36 249.28 468.16 C 251.07 472.78 249.43 478.02 251.76 482.48 C 254.20 487.99 250.14 493.41 250.36 498.97 C 250.33 505.34 250.31 511.71 250.39 518.08 C 250.04 520.17 252.09 521.23 253.48 522.33 C 255.62 522.65 259.55 521.78 259.46 525.02 C 260.43 529.19 254.35 530.16 254.48 533.97 C 256.35 536.59 259.01 538.61 260.55 541.49 C 261.36 544.84 259.20 547.93 258.46 551.10 C 257.51 550.43 256.81 549.51 256.31 548.49 C 252.89 542.13 248.94 536.04 245.99 529.44 C 245.52 525.54 243.21 522.04 243.51 518.05 C 243.78 510.01 242.90 501.88 244.42 493.94 C 245.11 492.18 242.54 492.53 241.61 491.96 C 242.24 498.77 234.97 504.20 228.56 502.27 C 228.55 504.79 228.18 507.30 226.56 509.31 C 224.45 509.26 222.34 509.17 220.24 509.09 C 219.73 511.13 219.48 513.23 219.26 515.33 C 215.90 515.12 212.56 515.43 209.22 515.72 C 207.55 513.85 206.12 511.78 205.33 509.38 C 203.16 512.24 198.87 512.10 196.77 509.25 C 194.07 507.35 196.53 504.38 197.62 502.35 C 194.78 502.39 191.65 502.72 189.48 500.50 C 186.76 497.90 187.72 493.99 188.81 490.86 C 187.27 489.25 185.78 487.61 184.28 485.98 C 185.62 484.65 186.98 483.32 188.26 481.93 C 189.22 480.35 188.37 478.39 188.96 476.71 C 189.96 475.23 191.05 473.78 192.40 472.61 C 193.99 471.15 196.31 471.87 198.26 471.67 C 200.03 473.46 201.71 475.71 204.41 475.99 C 204.51 472.06 203.13 467.37 206.28 464.26 C 209.04 460.77 213.47 464.32 217.00 463.22 C 219.86 462.27 222.89 462.31 225.72 463.36 C 226.55 466.38 226.50 469.53 226.59 472.64 C 230.11 471.93 234.59 470.53 237.48 473.53 C 241.04 476.16 239.26 481.05 239.39 484.79 C 240.73 485.08 242.07 485.35 243.41 485.62 C 243.51 481.43 243.77 477.22 243.38 473.05 C 242.32 471.53 241.21 469.53 239.09 469.61 C 237.25 469.61 234.67 467.60 235.77 465.63 C 238.58 458.76 236.84 451.23 236.60 444.08 C 233.87 444.55 231.18 445.20 228.43 445.56 C 230.53 442.77 232.83 440.10 234.54 437.06 C 234.75 433.34 234.39 429.62 233.51 426.01 C 233.21 420.35 232.77 414.53 234.39 409.02 C 234.91 405.48 234.44 401.89 234.81 398.35 C 236.17 394.86 238.10 391.58 239.10 387.96 C 239.61 385.03 239.50 382.01 239.24 379.06 C 236.94 374.07 232.12 371.07 227.27 368.96 C 221.98 367.61 216.37 367.98 211.10 366.56 C 211.09 363.76 213.66 362.21 215.47 360.49 C 219.15 357.15 224.73 356.89 228.11 353.14 C 232.15 348.51 236.05 343.65 238.49 337.96 C 239.15 334.90 237.03 332.11 237.00 329.06 C 236.05 325.32 237.75 321.76 239.70 318.68 C 243.93 314.76 250.62 314.92 254.54 310.54 C 259.81 305.16 265.41 300.10 270.39 294.44 C 272.19 291.92 273.30 288.95 274.35 286.05 C 274.60 283.18 274.19 280.29 274.48 277.42 C 280.04 272.96 281.75 265.67 283.33 259.07 C 284.20 255.44 281.91 252.37 281.30 249.00 C 282.80 244.41 286.49 241.07 289.14 237.16 C 290.81 234.34 294.58 234.72 296.95 232.81 C 300.87 229.77 303.66 225.39 308.03 222.90 C 311.58 220.94 314.21 217.81 317.14 215.10 C 321.62 211.43 322.81 204.91 328.18 202.15 C 330.53 202.35 332.59 203.94 335.02 203.65 Z"
     id="path36"
     style="fill:#000000;stroke:#000000" />
  <path
     fill="#111111"
     d=" M 230.30 222.41 L 230.87 222.04 C 233.64 225.67 238.48 225.81 242.36 227.56 C 244.64 228.57 247.18 228.17 249.59 228.47 C 252.39 229.88 254.20 232.65 256.87 234.29 C 263.00 238.33 267.84 243.96 273.74 248.31 C 274.77 248.96 274.49 250.40 274.87 251.42 C 272.15 252.53 270.43 255.03 268.02 256.52 C 264.72 252.81 264.17 247.23 260.09 244.02 C 255.66 241.01 251.58 237.39 246.55 235.39 C 241.87 233.58 237.29 231.45 232.46 230.05 C 232.50 232.47 232.60 234.90 232.30 237.31 L 231.85 236.59 C 228.77 232.50 230.31 227.12 230.30 222.41 Z"
     id="path38"
     style="fill:#000000;stroke:#000000" />
  <path
     fill="#0d0d0d"
     d=" M 338.53 231.48 C 340.13 228.70 340.86 224.51 344.66 223.98 C 344.62 225.12 344.57 226.25 344.52 227.39 C 341.55 229.26 342.79 233.14 341.69 235.99 C 340.28 241.75 345.33 246.52 344.76 252.22 C 335.54 260.61 324.81 268.37 312.24 270.41 C 309.00 271.06 306.62 273.96 303.19 273.94 C 302.60 269.01 301.42 262.51 305.80 258.96 C 308.82 257.50 312.17 257.04 315.38 256.20 C 316.83 255.09 317.83 253.46 319.38 252.51 C 321.56 252.24 323.76 252.46 325.94 252.22 C 327.97 251.24 329.76 249.74 331.15 247.97 C 331.60 246.17 331.70 244.18 333.23 242.90 C 333.12 238.36 336.92 235.42 338.53 231.48 Z"
     id="path40"
     style="fill:#000000;stroke:#000000" />
  <path
     fill="#0a0a0a"
     d=" M 196.84 234.85 C 199.23 232.23 201.10 229.07 204.21 227.16 C 204.46 228.72 206.23 230.59 204.83 232.02 C 202.75 235.07 199.66 237.52 198.47 241.11 C 199.56 244.13 201.35 246.86 202.26 249.96 C 204.51 250.57 206.91 250.89 208.96 252.07 C 210.32 253.30 211.11 255.00 212.05 256.55 C 210.83 255.50 209.67 254.41 208.46 253.36 C 206.43 251.05 202.69 253.55 200.63 251.38 C 199.10 250.04 199.90 247.77 199.53 246.01 C 198.88 244.72 197.83 243.72 196.94 242.61 C 197.43 240.55 197.67 238.45 197.82 236.35 C 196.26 236.89 194.72 237.48 193.17 238.05 C 191.69 237.46 190.19 236.90 188.70 236.34 C 188.59 235.24 188.47 234.14 188.34 233.05 C 189.80 236.38 194.10 236.67 196.84 234.85 Z"
     id="path42"
     style="fill:#000000;stroke:#000000" />
  <path
     fill="#0e0e0e"
     d=" M 268.29 262.11 C 271.13 260.96 273.08 258.14 276.33 258.01 C 276.85 263.70 271.92 267.79 269.09 272.20 C 253.72 272.75 238.36 272.03 222.99 272.37 C 219.32 272.30 215.78 273.45 212.33 274.54 C 209.07 276.44 206.44 279.53 202.64 280.43 C 200.52 280.83 198.46 281.52 196.66 282.73 C 192.31 285.43 187.38 287.26 183.63 290.85 C 183.70 292.59 183.73 294.33 183.74 296.07 C 181.97 296.26 180.21 296.44 178.44 296.61 C 179.59 298.30 179.73 300.30 179.55 302.29 C 178.30 302.70 177.07 303.17 175.84 303.62 C 175.46 304.68 175.08 305.73 174.68 306.78 C 171.60 307.54 169.85 304.84 168.01 302.93 C 164.97 305.09 161.78 307.03 158.54 308.88 C 158.58 308.29 158.67 307.11 158.71 306.52 C 157.31 306.39 155.92 306.27 154.53 306.14 C 153.53 304.42 152.54 302.70 151.55 300.97 C 152.74 300.93 153.92 300.90 155.11 300.87 C 156.15 302.29 157.24 303.68 158.35 305.06 C 162.45 301.51 167.17 298.74 171.09 294.98 C 174.48 292.08 177.71 288.36 182.51 288.15 C 182.43 287.58 182.35 287.01 182.28 286.44 L 182.18 285.68 C 184.77 284.65 187.44 283.53 189.44 281.52 C 191.26 279.63 190.50 276.30 192.76 274.74 C 195.65 272.61 199.38 274.27 202.62 273.41 C 205.13 271.93 207.27 269.69 210.26 269.16 C 210.61 268.63 211.32 267.58 211.67 267.06 C 211.26 266.19 210.45 264.44 210.04 263.57 C 224.35 263.02 238.68 263.48 253.00 263.34 C 258.10 263.15 263.42 264.03 268.29 262.11 Z"
     id="path44"
     style="fill:#000000;stroke:#000000" />
  <path
     fill="#0b0b0b"
     d=" M 348.16 269.90 C 348.82 268.40 349.47 266.91 350.12 265.41 C 353.91 264.95 355.73 268.85 357.61 271.45 C 359.52 271.88 361.44 272.31 363.37 272.68 C 364.43 274.19 365.57 275.64 366.74 277.07 C 365.43 279.49 364.12 281.95 362.23 283.98 C 362.41 284.24 362.79 284.77 362.97 285.04 C 363.91 286.38 364.83 287.73 365.76 289.09 C 364.50 291.27 363.26 293.45 362.02 295.63 C 364.46 296.58 367.19 297.12 369.25 298.83 C 370.49 301.67 370.78 304.83 370.83 307.91 C 370.73 308.38 370.52 309.32 370.41 309.79 C 367.65 308.56 364.82 308.05 362.03 309.48 C 359.69 308.40 358.14 306.04 355.76 304.91 C 354.33 308.80 357.84 311.07 360.54 313.04 C 361.32 316.74 358.14 318.90 355.79 321.08 C 356.82 322.76 357.76 324.51 358.54 326.33 C 359.89 326.79 361.23 327.28 362.58 327.77 C 362.56 329.17 362.50 330.57 362.42 331.98 C 360.59 334.00 358.56 335.84 356.62 337.76 C 354.37 338.18 352.81 336.25 350.96 335.40 C 348.60 335.77 346.20 337.51 343.82 336.30 C 341.51 334.84 340.31 332.24 340.30 329.56 C 339.03 329.20 337.77 328.83 336.51 328.48 C 336.25 326.49 335.90 324.52 335.60 322.55 C 334.27 322.48 332.95 322.42 331.63 322.35 C 331.90 320.56 331.41 318.31 332.95 317.00 C 334.91 315.22 337.41 314.25 339.73 313.08 C 338.59 310.08 337.93 306.93 337.23 303.81 C 333.94 303.50 330.72 302.72 327.43 302.48 C 324.42 305.59 321.54 308.95 317.50 310.79 C 315.73 312.20 313.03 311.72 311.79 309.84 C 311.45 308.40 311.52 306.90 311.46 305.44 C 308.65 304.85 305.27 305.07 303.48 302.40 C 302.51 299.99 304.25 297.93 305.50 296.06 C 304.58 293.97 302.51 291.80 303.60 289.39 C 305.10 287.74 307.30 287.20 309.34 286.53 C 309.48 284.76 309.67 282.99 310.04 281.26 C 312.64 280.93 314.78 282.38 316.98 283.48 C 318.80 283.51 320.65 283.13 322.46 283.50 C 323.96 285.09 325.04 287.00 326.18 288.85 C 328.77 285.82 324.84 281.63 327.75 278.45 C 331.18 278.12 336.40 280.34 337.84 275.88 C 337.37 274.54 336.56 273.34 336.21 271.97 C 336.13 270.03 338.09 268.93 339.02 267.46 C 342.34 266.98 345.31 268.40 348.16 269.90 Z"
     id="path46"
     style="fill:#000000;stroke:#000000" />
  <path
     fill="#0b0b0b"
     d=" M 152.93 276.01 C 154.42 274.65 155.43 271.55 157.93 272.44 C 160.71 273.51 163.49 274.62 166.05 276.16 C 166.64 274.92 167.23 273.68 167.83 272.44 C 170.76 273.75 173.88 274.58 177.11 274.58 C 177.33 277.33 177.87 280.07 179.76 282.20 C 178.64 283.25 177.57 284.40 176.26 285.24 C 173.91 286.77 171.39 288.05 169.20 289.81 C 166.67 293.80 161.95 290.30 158.67 289.32 C 158.04 291.45 157.53 293.60 157.16 295.79 C 153.15 295.23 148.99 294.46 145.58 292.16 C 144.12 291.28 142.30 291.73 140.69 291.53 C 139.98 289.65 139.08 287.86 138.31 286.01 C 139.19 284.47 141.28 284.03 142.67 283.00 C 142.57 280.74 141.47 278.78 140.29 276.92 C 143.96 274.28 149.04 273.06 152.93 276.01 Z"
     id="path48"
     style="fill:#000000;stroke:#000000" />
  <path
     fill="#0b0b0b"
     d=" M 252.93 280.68 C 258.34 280.94 263.24 277.82 268.71 278.49 C 268.52 280.59 268.10 282.66 267.55 284.69 C 262.83 287.17 257.56 287.53 252.35 287.55 C 247.00 290.91 240.82 293.83 237.41 299.42 C 235.28 303.74 231.68 307.06 229.27 311.21 C 225.75 315.00 223.10 319.50 219.50 323.22 C 222.99 326.48 222.14 332.22 218.33 334.87 C 219.08 337.18 220.66 340.53 217.84 342.11 C 214.66 342.99 211.26 342.31 208.00 342.43 C 208.61 344.42 209.46 346.33 210.40 348.20 C 209.10 348.61 207.81 349.05 206.51 349.48 C 206.27 351.47 206.83 353.92 204.95 355.28 C 200.58 356.56 196.33 353.78 192.07 355.54 C 191.03 354.40 190.10 353.18 189.10 352.01 C 186.32 354.94 181.83 357.01 181.17 361.36 C 183.03 361.51 184.87 361.88 186.63 362.54 C 186.41 365.26 186.32 367.98 186.31 370.71 C 182.74 370.66 179.18 370.66 175.62 370.72 C 175.26 369.48 174.85 368.26 174.39 367.07 C 173.63 366.00 172.81 364.98 171.99 363.97 C 177.35 359.04 182.71 354.03 186.54 347.76 C 184.50 346.20 181.96 345.09 180.44 342.99 C 179.70 340.31 182.56 338.84 183.94 337.02 C 183.02 334.77 181.75 332.46 182.25 329.94 C 183.57 328.89 185.02 328.03 186.28 326.91 C 186.56 324.89 186.34 322.81 186.78 320.82 C 189.55 318.06 193.18 320.25 196.28 321.02 C 197.40 319.18 198.17 316.93 200.15 315.82 C 203.06 315.66 206.12 315.80 208.12 313.27 C 210.39 314.83 212.44 316.70 213.99 318.99 C 217.68 317.04 219.68 313.30 222.17 310.14 C 226.57 304.81 229.29 298.17 234.43 293.43 C 237.70 290.33 240.09 286.15 244.39 284.29 C 247.19 283.01 249.71 280.68 252.93 280.68 Z"
     id="path50"
     style="fill:#000000;stroke:#000000" />
  <path
     fill="#090909"
     d=" M 475.87 285.62 C 476.81 283.91 476.98 281.46 479.02 280.66 C 480.64 280.50 482.29 280.47 483.91 280.73 C 486.25 282.26 487.83 285.36 490.94 285.34 C 493.76 285.54 496.18 287.29 498.29 289.05 C 499.24 292.32 498.59 295.76 496.13 298.19 C 497.49 299.56 498.95 300.83 500.47 302.02 C 500.56 303.43 500.66 304.83 500.77 306.24 C 498.60 308.76 495.10 309.40 493.01 311.98 C 490.83 314.48 487.70 315.69 484.75 317.00 C 487.86 319.80 492.24 318.74 495.09 316.19 C 496.69 316.96 498.38 317.54 500.17 317.73 C 500.56 315.90 501.08 314.10 501.60 312.31 C 503.61 312.09 505.36 312.71 506.58 314.39 C 510.96 314.54 513.48 310.85 516.55 308.42 C 520.15 306.88 521.53 311.04 522.67 313.56 C 524.53 314.01 526.41 314.44 528.28 314.86 C 528.79 317.69 528.05 321.33 530.74 323.20 C 531.59 323.85 532.45 324.52 533.30 325.20 C 534.66 327.56 532.21 329.50 531.13 331.36 C 533.05 331.48 534.97 331.53 536.90 331.61 C 537.92 332.94 538.96 334.26 539.98 335.61 C 542.17 335.64 544.38 335.63 546.58 335.59 C 548.32 340.21 546.89 345.24 547.49 350.06 C 545.22 352.81 541.20 350.81 538.12 351.47 C 538.91 352.62 539.72 353.78 540.55 354.92 C 539.69 355.77 538.84 356.63 538.02 357.51 C 536.17 357.50 534.34 357.49 532.51 357.49 C 530.55 360.94 526.35 361.44 523.15 359.32 C 524.10 355.22 520.55 352.35 519.26 348.83 C 518.97 346.89 520.59 345.42 521.44 343.84 C 521.33 343.36 521.10 342.41 520.98 341.93 C 517.30 341.54 513.53 341.28 509.91 342.24 C 508.88 343.08 507.86 343.95 506.86 344.83 C 504.09 343.67 502.82 341.05 502.24 338.28 C 500.49 339.00 498.70 339.63 496.85 340.05 C 495.48 338.45 494.18 336.79 492.92 335.11 C 492.12 336.62 491.35 338.14 490.52 339.63 C 488.21 339.68 485.89 339.69 483.59 339.90 C 483.87 343.15 482.34 345.95 480.52 348.51 C 478.14 348.61 475.75 348.79 473.37 348.60 C 470.98 347.17 469.49 344.43 466.71 343.61 C 464.17 342.74 461.48 341.87 459.80 339.64 C 461.81 336.83 463.17 333.64 464.19 330.36 C 462.88 328.52 459.83 326.99 460.43 324.41 C 461.65 322.10 463.76 320.46 465.55 318.62 C 463.89 317.44 462.15 316.39 460.30 315.57 C 455.69 314.20 457.33 308.92 459.37 306.03 C 457.63 304.03 453.58 302.38 454.78 299.19 C 456.49 297.20 458.87 296.05 461.29 295.13 C 461.33 293.21 461.40 291.29 461.57 289.39 C 463.50 289.41 465.44 289.43 467.38 289.49 C 467.23 286.82 468.75 284.86 470.74 283.27 C 472.39 284.17 474.10 284.96 475.87 285.62 Z"
     id="path52"
     style="fill:#000000;stroke:#000000" />
  <path
     fill="#0a0a0a"
     d=" M 169.20 289.81 C 171.39 288.05 173.91 286.77 176.26 285.24 C 177.20 288.09 180.14 286.48 182.28 286.44 C 182.35 287.01 182.43 287.58 182.51 288.15 C 177.71 288.36 174.48 292.08 171.09 294.98 C 171.34 292.52 173.70 291.22 174.72 289.13 C 172.85 289.15 171.01 289.38 169.20 289.81 Z"
     id="path54"
     style="fill:#000000;stroke:#000000" />
  <path
     fill="#0a0a0a"
     d=" M 362.97 285.04 C 364.18 285.87 365.38 286.72 366.61 287.53 C 367.18 290.56 364.55 292.54 364.01 295.32 C 366.73 295.69 369.17 296.87 371.10 298.82 C 371.06 301.63 371.92 304.23 373.71 306.42 C 372.75 306.92 371.79 307.42 370.83 307.91 C 370.78 304.83 370.49 301.67 369.25 298.83 C 367.19 297.12 364.46 296.58 362.02 295.63 C 363.26 293.45 364.50 291.27 365.76 289.09 C 364.83 287.73 363.91 286.38 362.97 285.04 Z"
     id="path56"
     style="fill:#000000;stroke:#000000" />
  <path
     fill="#070707"
     d=" M 137.10 304.44 C 137.91 302.46 138.29 300.09 140.14 298.76 C 142.60 297.45 144.83 299.58 147.04 300.43 C 150.04 300.48 153.06 300.19 156.03 300.84 L 155.11 300.87 C 153.92 300.90 152.74 300.93 151.55 300.97 C 152.54 302.70 153.53 304.42 154.53 306.14 C 155.92 306.27 157.31 306.39 158.71 306.52 C 158.67 307.11 158.58 308.29 158.54 308.88 C 158.47 309.72 158.39 310.57 158.31 311.41 C 159.42 311.70 160.52 312.00 161.62 312.32 C 162.16 314.43 162.23 316.78 163.66 318.56 C 165.38 320.79 165.04 324.45 162.96 326.38 C 160.67 326.76 158.34 326.62 156.03 326.60 C 156.60 329.06 159.04 332.39 156.38 334.38 C 154.59 336.54 151.38 335.30 148.95 335.69 C 146.73 335.42 145.88 337.71 145.13 339.34 C 142.50 339.88 139.94 340.73 137.94 342.61 C 134.62 340.48 130.59 339.84 127.42 337.44 C 126.38 336.78 125.35 336.13 124.32 335.48 C 125.44 334.36 126.60 333.30 127.78 332.26 C 126.45 329.49 124.25 327.31 122.27 325.02 C 123.31 323.53 124.37 322.05 125.37 320.53 C 126.91 320.44 128.45 320.35 129.99 320.24 C 129.50 318.36 128.79 316.56 128.04 314.78 C 129.13 313.84 131.34 313.68 131.48 312.03 C 130.51 310.03 129.37 308.09 129.00 305.88 C 131.04 303.16 134.21 302.86 137.10 304.44 Z"
     id="path58"
     style="fill:#000000;stroke:#000000" />
  <path
     fill="#0a0a0a"
     d=" M 327.43 302.48 C 330.72 302.72 333.94 303.50 337.23 303.81 C 337.93 306.93 338.59 310.08 339.73 313.08 C 337.41 314.25 334.91 315.22 332.95 317.00 C 331.41 318.31 331.90 320.56 331.63 322.35 C 330.85 321.54 330.06 320.74 329.27 319.96 C 331.53 316.52 333.18 311.46 338.04 311.18 C 337.44 310.11 336.84 309.07 336.22 308.03 C 336.38 307.40 336.69 306.14 336.85 305.51 C 333.65 305.21 330.66 304.06 327.72 302.82 C 326.40 304.87 325.24 307.03 324.41 309.33 C 322.01 309.37 319.53 309.30 317.50 310.79 C 321.54 308.95 324.42 305.59 327.43 302.48 Z"
     id="path60"
     style="fill:#000000;stroke:#000000" />
  <path
     fill="#0a0a0a"
     d=" M 506.58 314.39 C 509.73 310.95 513.71 308.52 517.40 305.72 C 521.27 305.53 523.34 309.97 522.79 313.40 C 524.73 313.47 526.68 313.52 528.64 313.57 C 529.49 315.02 530.42 316.43 531.24 317.91 C 530.64 318.93 529.95 319.90 529.32 320.90 C 529.67 321.47 530.38 322.62 530.74 323.20 C 528.05 321.33 528.79 317.69 528.28 314.86 C 526.41 314.44 524.53 314.01 522.67 313.56 C 521.53 311.04 520.15 306.88 516.55 308.42 C 513.48 310.85 510.96 314.54 506.58 314.39 Z"
     id="path62"
     style="fill:#000000;stroke:#000000" />
  <path
     fill="#0a0a0a"
     d=" M 460.30 315.57 C 462.15 316.39 463.89 317.44 465.55 318.62 C 463.76 320.46 461.65 322.10 460.43 324.41 C 459.83 326.99 462.88 328.52 464.19 330.36 C 463.17 333.64 461.81 336.83 459.80 339.64 L 459.39 340.25 C 459.46 338.38 459.07 336.41 459.76 334.63 C 460.79 333.33 461.96 332.14 463.06 330.91 C 460.40 328.81 458.59 325.97 459.37 322.47 C 460.95 321.32 462.53 320.19 464.11 319.04 C 462.86 317.85 461.59 316.69 460.30 315.57 Z"
     id="path64"
     style="fill:#000000;stroke:#000000" />
  <path
     fill="#1f1f1f"
     d=" M 105.38 353.36 C 111.87 347.59 117.79 341.21 124.32 335.48 C 125.35 336.13 126.38 336.78 127.42 337.44 C 123.08 341.77 118.28 345.61 113.98 349.99 C 109.83 353.91 106.07 358.25 101.74 361.97 C 99.66 363.31 97.66 364.76 95.53 366.00 C 95.97 364.97 96.43 363.94 96.90 362.93 C 95.36 363.77 93.81 364.59 92.27 365.44 C 95.80 360.57 100.36 356.61 105.38 353.36 Z"
     id="path66"
     style="fill:#000000;stroke:#000000" />
  <path
     fill="#0a0a0a"
     d=" M 509.91 342.24 C 513.53 341.28 517.30 341.54 520.98 341.93 C 521.10 342.41 521.33 343.36 521.44 343.84 C 520.59 345.42 518.97 346.89 519.26 348.83 C 520.55 352.35 524.10 355.22 523.15 359.32 L 523.09 360.21 C 522.76 358.44 522.61 356.67 522.49 354.89 C 520.91 353.22 518.89 351.82 517.97 349.65 C 517.70 347.93 517.86 346.19 517.86 344.47 C 515.32 343.38 512.74 342.17 509.91 342.24 Z"
     id="path68"
     style="fill:#000000;stroke:#000000" />
  <path
     fill="#0a0a0a"
     d=" M 445.62 345.19 C 445.95 345.47 446.59 346.04 446.91 346.33 C 447.75 352.98 446.48 359.70 447.46 366.34 C 449.53 362.38 446.79 357.26 450.28 353.84 C 450.53 358.09 450.34 362.38 449.43 366.55 C 448.70 367.82 446.82 367.46 445.65 368.05 C 445.54 360.43 445.77 352.81 445.62 345.19 Z"
     id="path70"
     style="fill:#000000;stroke:#000000" />
  <path
     fill="#0a0a0a"
     d=" M 455.04 346.06 C 457.27 347.78 459.11 349.92 461.04 351.96 C 462.65 353.69 464.83 354.97 465.81 357.21 C 464.41 357.56 463.05 357.98 461.71 358.47 C 460.56 356.75 459.36 355.08 458.20 353.39 C 455.70 353.35 453.20 353.35 450.72 353.29 C 453.12 351.35 456.31 351.76 459.14 352.25 C 459.24 352.33 459.46 352.49 459.57 352.57 C 459.46 352.49 459.24 352.33 459.14 352.25 C 457.79 350.17 456.56 348.01 455.04 346.06 Z"
     id="path72"
     style="fill:#000000;stroke:#000000" />
  <path
     fill="#0c0c0c"
     d=" M 459.14 352.25 C 459.24 352.33 459.46 352.49 459.57 352.57 C 459.46 352.49 459.24 352.33 459.14 352.25 Z"
     id="path74"
     style="fill:#000000;stroke:#000000" />
  <path
     fill="#080808"
     d=" M 467.47 365.91 C 467.80 363.81 466.96 361.11 469.05 359.73 C 472.36 359.55 475.69 359.63 479.01 359.77 C 480.76 360.35 481.96 361.81 483.36 362.94 C 483.38 364.74 483.45 366.55 483.52 368.37 C 485.32 368.35 487.12 368.31 488.92 368.52 C 490.53 370.13 488.82 372.99 490.35 374.70 C 491.82 375.59 493.65 375.41 495.30 375.72 C 496.54 377.94 496.74 380.49 496.40 382.99 C 494.54 385.06 491.36 384.47 489.04 385.79 C 490.52 388.08 492.45 390.03 494.20 392.13 C 494.65 394.49 494.58 396.99 493.67 399.25 C 490.20 399.67 487.06 401.42 483.58 401.80 C 483.57 403.54 483.60 405.28 483.43 407.01 C 481.17 409.44 477.21 407.68 474.84 410.27 C 471.58 410.34 468.25 410.18 465.87 412.85 C 464.60 411.50 463.38 410.12 462.25 408.67 C 460.29 408.37 457.74 409.23 456.59 407.12 C 456.51 406.46 456.33 405.16 456.24 404.51 C 454.47 403.98 452.64 403.62 450.91 402.98 C 449.24 401.16 448.15 398.91 446.86 396.83 C 444.19 402.48 446.45 408.99 444.88 414.94 L 444.77 414.06 C 444.84 410.21 445.52 406.32 444.99 402.50 C 443.74 400.86 441.96 399.75 440.30 398.60 C 440.09 398.87 439.67 399.41 439.46 399.68 C 437.87 401.91 436.12 404.63 433.04 404.72 C 431.56 404.02 430.28 402.97 428.80 402.31 C 426.66 402.28 425.60 404.60 424.08 405.75 C 422.26 405.51 419.96 406.07 418.89 404.16 C 416.75 401.46 413.83 399.50 410.43 398.78 C 410.42 396.75 411.53 395.18 412.91 393.82 C 411.12 391.82 407.56 390.28 408.55 387.06 C 409.98 385.66 411.61 384.47 413.14 383.17 C 415.09 381.77 414.85 378.74 417.04 377.56 C 418.90 377.21 420.48 378.61 422.12 379.27 C 424.31 377.87 427.21 376.37 429.68 378.01 C 432.11 380.18 435.55 379.30 438.43 380.38 L 438.48 381.42 C 438.61 383.61 438.76 385.80 438.91 387.99 C 440.26 388.30 441.62 388.61 442.99 388.92 C 442.82 384.94 442.62 380.91 443.44 376.98 C 443.68 375.82 443.97 374.69 444.32 373.57 C 447.72 372.11 451.22 372.42 454.52 373.99 C 454.29 372.29 453.71 370.67 453.34 369.00 C 453.76 367.47 454.45 366.04 455.00 364.56 C 459.20 364.24 463.65 363.70 467.47 365.91 Z"
     id="path76"
     style="fill:#000000;stroke:#000000" />
  <path
     fill="#0a0a0a"
     d=" M 95.53 366.00 C 97.66 364.76 99.66 363.31 101.74 361.97 C 100.18 363.31 98.29 364.33 97.72 366.49 C 102.90 366.70 108.08 366.80 113.26 366.46 C 113.59 369.48 115.54 371.83 117.46 374.03 C 116.21 375.75 114.95 377.46 113.68 379.17 C 114.39 379.37 115.79 379.77 116.49 379.97 C 116.44 381.88 115.53 383.53 114.50 385.09 C 114.07 386.81 114.27 388.62 114.18 390.39 C 111.23 391.43 108.52 393.00 105.85 394.61 C 102.30 394.82 98.75 394.25 95.20 394.26 C 92.78 393.43 90.35 392.60 87.82 392.22 C 86.55 389.02 84.93 385.98 83.39 382.92 C 83.25 380.96 83.54 379.00 83.62 377.06 C 81.80 377.55 80.10 378.69 78.17 378.72 C 76.76 378.23 75.38 377.68 73.99 377.15 C 73.45 375.47 72.89 373.80 72.33 372.13 C 70.98 372.62 69.62 373.10 68.25 373.59 C 66.81 372.80 65.40 371.94 63.86 371.39 C 60.08 372.10 56.82 374.39 53.67 376.47 C 54.16 374.89 54.59 373.30 55.00 371.71 C 56.57 372.26 58.23 372.74 59.91 372.47 C 61.55 371.08 63.15 369.65 64.85 368.35 C 65.85 369.88 66.90 371.39 67.95 372.89 C 69.75 371.38 71.85 370.29 74.26 370.56 C 74.35 372.72 74.42 374.88 74.54 377.05 C 77.49 376.19 80.04 374.42 82.50 372.64 C 83.52 373.58 84.53 374.54 85.55 375.49 C 85.12 377.95 83.96 380.59 85.02 383.04 C 86.13 385.78 87.37 388.49 88.99 390.96 C 93.64 393.14 98.99 393.11 104.03 393.62 C 106.43 394.19 107.31 391.48 108.51 389.99 C 109.88 389.88 111.26 389.79 112.63 389.70 C 113.25 386.82 113.85 383.94 114.47 381.07 C 113.83 380.27 113.20 379.48 112.57 378.69 C 113.47 377.37 114.37 376.05 115.27 374.74 C 114.36 372.27 113.39 369.82 112.38 367.39 C 108.40 368.05 104.35 367.99 100.36 367.38 C 98.29 368.69 96.19 369.95 94.00 371.06 C 94.42 369.35 94.80 367.61 95.53 366.00 Z"
     id="path78"
     style="fill:#000000;stroke:#000000" />
  <path
     fill="#0b0b0b"
     d=" M 92.27 365.44 C 93.81 364.59 95.36 363.77 96.90 362.93 C 96.43 363.94 95.97 364.97 95.53 366.00 C 94.80 367.61 94.42 369.35 94.00 371.06 C 96.19 369.95 98.29 368.69 100.36 367.38 C 104.35 367.99 108.40 368.05 112.38 367.39 C 113.39 369.82 114.36 372.27 115.27 374.74 C 114.37 376.05 113.47 377.37 112.57 378.69 C 113.20 379.48 113.83 380.27 114.47 381.07 C 113.85 383.94 113.25 386.82 112.63 389.70 C 111.26 389.79 109.88 389.88 108.51 389.99 C 107.31 391.48 106.43 394.19 104.03 393.62 C 98.99 393.11 93.64 393.14 88.99 390.96 C 87.37 388.49 86.13 385.78 85.02 383.04 C 83.96 380.59 85.12 377.95 85.55 375.49 C 84.53 374.54 83.52 373.58 82.50 372.64 C 85.07 369.41 88.78 367.49 92.27 365.44 Z"
     id="path80"
     style="fill:#000000;stroke:#000000" />
  <path
     fill="#353535"
     d=" M 152.98 381.74 C 157.87 374.38 165.60 369.83 171.99 363.97 C 172.81 364.98 173.63 366.00 174.39 367.07 C 170.48 368.64 167.19 371.32 164.43 374.47 C 161.43 378.01 156.97 379.63 152.98 381.74 Z"
     id="path82"
     style="fill:#000000;stroke:#000000" />
  <path
     fill="#0d0d0d"
     d=" M 53.67 376.47 C 56.82 374.39 60.08 372.10 63.86 371.39 C 65.40 371.94 66.81 372.80 68.25 373.59 C 69.62 373.10 70.98 372.62 72.33 372.13 C 72.89 373.80 73.45 375.47 73.99 377.15 C 75.38 377.68 76.76 378.23 78.17 378.72 C 77.08 380.08 75.97 381.43 74.88 382.80 C 75.76 384.45 76.69 386.16 76.49 388.12 C 71.24 388.57 67.29 392.98 62.06 393.55 C 59.13 393.13 55.48 393.41 53.52 390.77 C 52.76 389.85 52.07 388.88 51.43 387.88 C 49.24 385.34 50.78 382.01 51.52 379.23 C 51.72 378.00 52.76 377.19 53.67 376.47 Z"
     id="path84"
     style="fill:#000000;stroke:#000000" />
  <path
     fill="#0a0a0a"
     d=" M 441.70 377.88 C 442.14 377.65 443.01 377.20 443.44 376.98 C 442.62 380.91 442.82 384.94 442.99 388.92 C 441.62 388.61 440.26 388.30 438.91 387.99 C 438.76 385.80 438.61 383.61 438.48 381.42 C 439.36 382.39 440.29 383.31 441.29 384.18 C 441.50 382.07 441.59 379.98 441.70 377.88 Z"
     id="path86"
     style="fill:#000000;stroke:#000000" />
  <path
     fill="#0a0a0a"
     d=" M 503.12 384.92 C 504.83 383.11 506.71 381.17 509.43 381.54 C 510.74 383.43 511.83 385.44 512.85 387.51 C 515.35 388.19 517.78 386.00 520.43 386.16 C 520.49 387.64 520.55 389.12 520.62 390.60 C 523.94 390.33 527.92 390.99 529.38 394.40 C 529.83 397.59 525.69 399.75 527.31 403.17 C 527.80 403.40 528.79 403.86 529.28 404.09 C 529.34 405.57 529.37 407.05 529.42 408.55 C 531.41 408.63 533.78 408.23 534.80 410.41 C 532.14 410.56 529.48 410.47 526.83 410.30 C 527.12 408.53 527.42 406.76 527.72 405.00 C 526.67 404.52 525.62 404.05 524.58 403.59 C 524.40 399.81 526.86 396.87 529.04 394.07 C 526.09 393.61 523.14 393.17 520.19 392.76 C 519.85 391.04 519.52 389.33 519.21 387.62 C 517.03 388.54 514.73 389.13 512.39 389.42 C 511.14 387.49 510.30 385.10 508.37 383.75 C 506.55 383.66 504.81 384.33 503.12 384.92 Z"
     id="path88"
     style="fill:#000000;stroke:#000000" />
  <path
     fill="#0b0b0b"
     d=" M 259.13 386.98 C 260.13 385.21 261.03 383.39 262.16 381.70 C 264.49 380.56 265.96 383.16 266.98 384.84 C 269.61 391.31 275.80 395.21 281.39 398.90 C 286.25 402.17 292.61 403.69 295.63 409.15 C 296.86 412.15 297.67 415.51 300.21 417.75 C 303.31 421.43 308.13 422.57 312.23 424.70 C 313.36 425.41 314.69 425.54 315.99 425.70 C 313.10 428.88 312.55 433.12 312.39 437.24 C 310.46 433.49 309.61 428.96 305.95 426.39 C 301.24 429.44 301.51 435.47 302.25 440.37 C 302.58 440.61 303.25 441.08 303.59 441.32 C 306.23 442.50 305.42 445.72 305.50 448.03 C 305.51 451.85 302.58 455.09 303.25 458.99 C 303.49 461.41 306.02 464.24 303.76 466.40 C 299.07 471.50 297.68 478.54 294.75 484.64 C 292.03 491.94 289.44 499.28 286.48 506.49 C 284.76 509.96 285.53 513.91 285.46 517.63 C 283.17 517.94 280.00 516.48 278.70 519.05 C 277.56 525.15 280.41 532.02 276.88 537.54 C 275.51 543.95 273.11 550.10 271.34 556.44 C 270.30 559.17 269.46 562.02 269.68 564.98 C 269.97 576.37 268.72 588.08 272.04 599.14 C 272.77 603.18 271.87 607.43 273.27 611.38 C 274.33 617.53 273.63 623.84 273.32 630.03 C 274.61 628.59 275.93 627.17 277.21 625.72 C 278.27 625.62 279.33 625.52 280.39 625.44 C 280.92 623.01 282.08 620.82 283.84 619.06 C 285.17 619.86 286.49 620.66 287.83 621.46 C 289.10 621.01 290.34 620.07 291.76 620.33 C 294.02 620.72 294.05 623.54 294.87 625.25 C 297.91 625.02 300.69 626.03 302.70 628.37 C 302.70 630.60 302.60 632.83 302.69 635.07 C 304.44 637.60 308.39 635.25 309.97 638.04 C 311.21 639.17 310.53 640.86 310.12 642.20 C 309.18 644.64 309.55 647.30 309.48 649.86 C 306.75 650.76 303.86 650.44 301.04 650.44 C 302.29 652.05 303.63 653.61 304.66 655.38 C 305.41 657.83 302.79 658.96 301.60 660.64 C 300.85 662.24 300.51 663.99 300.07 665.70 C 297.98 665.26 296.05 664.39 294.17 663.43 C 293.12 666.80 289.70 667.51 286.87 668.79 C 283.13 666.31 278.56 668.17 274.44 667.20 C 274.44 665.46 274.43 663.75 274.42 662.03 C 273.00 660.63 271.40 659.35 270.39 657.62 C 269.43 655.14 269.69 652.42 269.23 649.85 C 265.83 655.76 265.18 662.74 261.92 668.72 C 258.69 676.67 255.18 684.49 251.17 692.08 C 250.40 693.27 250.35 694.70 250.16 696.08 C 252.38 694.92 254.23 693.22 256.00 691.48 C 259.62 691.54 263.23 691.61 266.85 691.61 C 268.12 693.11 269.14 695.19 271.24 695.67 C 273.23 696.08 274.72 697.41 276.06 698.88 C 274.21 702.54 274.39 706.61 274.50 710.61 C 272.69 712.78 270.33 714.03 267.43 713.69 C 267.84 715.16 268.25 716.63 268.65 718.11 C 266.67 720.15 264.69 722.21 262.90 724.43 C 261.57 723.77 260.26 723.11 258.96 722.44 C 257.68 723.07 256.41 723.72 255.14 724.37 C 252.64 721.81 249.22 720.89 245.85 720.12 C 245.67 718.57 245.47 717.02 245.18 715.52 C 242.11 719.08 241.49 723.92 239.92 728.20 C 238.96 730.70 239.29 733.43 239.31 736.04 C 239.36 738.52 241.54 740.47 241.45 742.97 C 240.63 744.25 239.36 745.11 238.21 746.06 C 236.74 745.03 235.25 744.02 233.76 743.05 C 232.82 747.16 230.19 750.77 230.15 755.09 C 229.64 755.42 228.60 756.07 228.09 756.40 C 227.78 755.22 227.48 754.04 227.18 752.87 C 228.38 747.07 230.90 741.66 232.83 736.08 C 235.05 729.77 236.87 723.31 239.33 717.09 C 237.74 714.59 234.40 715.87 231.94 715.50 C 228.64 715.89 225.72 714.09 222.65 713.23 C 222.49 710.76 221.86 708.37 221.31 705.99 C 224.46 703.70 223.62 699.97 223.50 696.63 C 225.12 696.12 226.76 695.64 228.41 695.19 C 228.38 693.25 228.38 691.33 228.40 689.40 C 230.96 689.49 234.12 688.78 235.56 691.55 C 237.71 691.55 239.86 691.50 242.02 691.55 C 242.89 693.14 243.86 694.72 245.05 696.12 C 249.46 683.13 255.05 670.55 259.93 657.73 C 260.67 655.65 262.52 653.17 260.52 651.23 C 259.63 652.25 258.75 653.28 257.87 654.32 C 256.40 654.34 254.92 654.22 253.47 654.49 C 252.10 655.23 250.91 656.95 249.15 656.40 C 248.32 655.45 247.54 654.47 246.80 653.46 C 244.43 653.54 242.07 653.69 239.71 653.68 C 239.49 651.85 238.89 650.08 237.46 648.86 C 237.44 646.11 237.63 643.35 237.40 640.61 C 239.26 640.53 241.13 640.46 242.99 640.41 C 243.63 638.32 243.85 635.67 246.02 634.56 C 248.15 633.83 249.80 635.40 251.29 636.65 C 252.03 636.67 253.51 636.72 254.25 636.74 C 254.37 635.29 254.48 633.85 254.59 632.42 C 256.36 632.46 258.13 632.47 259.91 632.52 C 261.31 634.42 262.78 636.26 264.30 638.07 C 265.15 636.84 265.57 635.50 265.54 634.03 C 266.02 625.01 265.50 615.98 265.42 606.95 C 265.34 603.54 263.48 600.44 263.51 597.03 C 263.46 594.01 263.64 590.92 262.51 588.07 C 260.80 583.81 261.45 579.17 261.42 574.71 C 258.42 573.10 254.56 572.98 252.43 570.02 C 253.23 567.03 256.51 566.17 259.30 566.30 C 260.61 563.76 261.36 561.00 261.55 558.16 C 263.17 553.89 264.70 549.55 265.47 545.04 C 271.87 525.20 279.31 505.58 286.81 486.08 C 289.31 477.75 292.32 469.56 294.24 461.06 C 294.66 458.30 296.53 455.92 296.43 453.08 C 296.39 446.69 296.63 440.29 296.28 433.91 C 294.92 429.72 293.03 425.72 291.21 421.72 C 289.34 419.29 286.89 417.40 284.72 415.27 C 281.79 412.54 279.36 409.33 276.31 406.73 C 273.14 404.05 269.27 402.46 265.80 400.25 C 263.48 398.66 261.44 396.70 259.23 394.97 C 260.79 392.36 260.80 389.55 259.13 386.98 Z"
     id="path90"
     style="fill:#000000;stroke:#000000" />
  <path
     fill="#070707"
     d=" M 503.12 384.92 C 504.81 384.33 506.55 383.66 508.37 383.75 C 510.30 385.10 511.14 387.49 512.39 389.42 C 514.73 389.13 517.03 388.54 519.21 387.62 C 519.52 389.33 519.85 391.04 520.19 392.76 C 523.14 393.17 526.09 393.61 529.04 394.07 C 526.86 396.87 524.40 399.81 524.58 403.59 C 525.62 404.05 526.67 404.52 527.72 405.00 C 527.42 406.76 527.12 408.53 526.83 410.30 C 529.48 410.47 532.14 410.56 534.80 410.41 L 535.65 410.37 C 535.67 413.04 536.30 416.01 534.20 418.11 C 534.40 418.68 534.79 419.82 534.98 420.40 C 534.02 420.44 533.06 420.48 532.12 420.52 C 531.61 420.26 530.59 419.74 530.08 419.49 C 529.39 419.76 528.02 420.32 527.33 420.59 C 526.08 420.63 524.82 420.68 523.58 420.75 C 522.70 420.25 521.85 419.75 521.00 419.25 C 519.86 423.94 514.23 424.92 511.01 427.89 C 509.88 427.01 508.77 426.14 507.62 425.32 C 507.50 423.97 507.39 422.63 507.29 421.29 C 504.96 421.20 502.19 424.02 500.27 421.77 C 498.33 419.43 496.61 416.65 496.26 413.57 C 497.16 412.71 498.05 411.84 498.94 410.97 C 495.53 410.12 493.60 407.37 492.06 404.45 C 495.18 403.15 498.16 401.51 500.71 399.28 C 500.91 395.90 500.72 392.47 498.38 389.81 C 499.95 388.17 501.47 386.47 503.12 384.92 Z"
     id="path92"
     style="fill:#000000;stroke:#000000" />
  <path
     fill="#202020"
     d=" M 21.37 406.90 C 31.61 400.92 41.08 393.62 51.43 387.88 C 52.07 388.88 52.76 389.85 53.52 390.77 C 50.65 392.60 47.61 394.13 44.63 395.76 C 39.50 398.86 34.87 402.71 29.66 405.67 C 27.17 406.91 23.83 409.63 21.37 406.90 Z"
     id="path94"
     style="fill:#000000;stroke:#000000" />
  <path
     fill="#0a0a0a"
     d=" M 80.10 401.57 C 81.54 398.54 82.21 394.53 85.03 392.55 C 85.48 392.64 86.39 392.83 86.84 392.92 C 86.53 396.74 82.97 399.47 83.11 403.40 C 80.12 402.13 77.13 400.72 73.89 400.24 C 69.91 399.30 68.00 404.23 64.16 404.32 C 64.78 401.96 67.93 401.86 68.81 399.53 C 72.64 399.63 77.21 398.27 80.10 401.57 Z"
     id="path96"
     style="fill:#000000;stroke:#000000" />
  <path
     fill="#0f0f0f"
     d=" M 439.46 399.68 C 439.67 399.41 440.09 398.87 440.30 398.60 C 441.96 399.75 443.74 400.86 444.99 402.50 C 445.52 406.32 444.84 410.21 444.77 414.06 C 444.55 414.93 444.11 416.66 443.89 417.53 C 445.80 417.50 447.71 417.46 449.63 417.43 C 449.97 418.46 450.30 419.49 450.63 420.53 C 451.97 420.96 453.32 421.37 454.69 421.79 C 454.55 423.51 454.42 425.24 454.24 426.96 C 455.09 427.94 455.96 428.91 456.82 429.90 C 456.60 431.55 456.72 433.45 455.02 434.37 C 453.01 434.65 450.98 434.64 448.96 434.75 C 447.31 437.91 443.69 436.51 442.03 434.18 C 441.30 434.44 439.83 434.96 439.10 435.22 C 438.76 433.78 438.41 432.35 438.08 430.92 C 438.88 429.39 439.44 427.75 439.40 426.00 C 439.35 422.88 441.22 420.15 441.36 417.07 C 441.52 411.61 441.35 406.16 441.55 400.71 C 441.03 400.45 439.99 399.94 439.46 399.68 Z"
     id="path98"
     style="fill:#000000;stroke:#000000" />
  <path
     fill="#090909"
     d=" M 64.16 404.32 C 68.00 404.23 69.91 399.30 73.89 400.24 C 77.13 400.72 80.12 402.13 83.11 403.40 C 84.29 404.04 85.77 404.37 86.62 405.50 C 87.17 407.05 85.99 408.33 85.33 409.62 C 86.95 410.92 88.46 412.36 89.89 413.88 C 88.75 415.37 87.69 416.95 86.32 418.24 C 84.28 419.05 82.13 419.56 80.08 420.35 C 75.55 421.98 70.66 423.32 66.06 421.12 C 65.24 421.64 64.43 422.17 63.62 422.71 C 62.54 420.50 60.24 418.65 60.58 415.99 C 60.85 414.07 60.11 412.38 59.13 410.80 C 59.18 410.25 59.29 409.17 59.35 408.62 C 60.43 408.28 61.51 407.94 62.60 407.60 C 62.89 406.56 63.18 405.53 63.46 404.50 L 64.16 404.32 Z"
     id="path100"
     style="fill:#000000;stroke:#000000" />
  <path
     fill="#0a0a0a"
     d=" M 17.70 408.84 C 18.95 408.23 20.17 407.57 21.37 406.90 C 23.83 409.63 27.17 406.91 29.66 405.67 C 26.00 408.23 21.55 409.06 17.45 410.64 C 17.51 410.19 17.64 409.29 17.70 408.84 Z"
     id="path102"
     style="fill:#000000;stroke:#000000" />
  <path
     fill="#0c0c0c"
     d=" M 339.98 415.13 C 342.00 414.11 344.20 411.23 346.54 413.21 C 348.94 415.08 351.97 414.66 354.81 414.68 C 356.06 417.96 360.43 419.83 359.69 423.71 C 359.89 425.42 357.92 425.88 356.95 426.90 C 354.39 428.46 354.55 431.76 354.05 434.35 C 356.78 434.32 359.78 434.14 361.59 436.64 C 362.03 435.34 362.45 434.05 362.85 432.75 C 364.55 432.27 366.20 431.49 367.99 431.38 C 369.82 432.22 371.35 433.55 372.91 434.80 C 374.25 434.01 375.59 433.22 376.93 432.43 C 377.72 433.18 378.54 433.92 379.37 434.66 C 379.57 436.03 379.77 437.40 379.99 438.77 C 381.26 438.21 382.49 437.54 383.84 437.16 C 385.77 439.20 387.50 441.74 390.67 441.63 C 390.66 442.81 390.66 444.00 390.67 445.19 C 389.34 445.38 388.01 445.57 386.69 445.77 C 386.64 447.37 386.58 448.97 386.53 450.58 C 385.29 450.59 384.05 450.61 382.82 450.62 C 382.07 452.98 380.43 456.49 377.38 455.53 C 375.46 454.68 374.52 452.46 372.83 451.22 C 370.84 451.43 369.01 452.37 367.02 452.55 C 365.54 451.85 364.27 450.80 362.96 449.87 C 362.05 451.66 361.39 454.13 359.05 454.46 C 356.34 454.77 353.62 454.34 350.90 454.50 C 354.20 458.61 356.89 463.27 360.83 466.83 C 363.03 465.64 366.24 464.32 368.13 466.77 C 368.94 469.49 369.73 472.23 371.03 474.78 C 370.34 476.03 369.65 477.28 369.02 478.57 C 367.22 479.53 365.50 480.62 363.83 481.80 C 362.14 482.92 360.46 484.07 358.73 485.13 C 356.64 485.37 354.55 485.61 352.61 486.49 C 350.22 487.46 349.22 484.42 347.98 483.01 C 345.77 480.30 348.88 477.32 349.58 474.62 C 350.81 474.30 352.03 473.96 353.26 473.61 C 353.20 471.00 355.38 469.80 357.46 468.86 C 353.82 464.06 350.47 459.04 346.50 454.49 C 346.06 454.46 345.18 454.41 344.73 454.38 C 345.14 457.50 344.03 461.60 340.02 460.75 C 336.78 458.76 333.14 458.29 329.40 458.64 C 329.31 456.48 329.80 454.23 329.15 452.14 C 327.05 449.99 324.00 448.77 322.52 446.04 C 322.38 442.91 325.72 441.34 327.12 438.88 C 327.50 436.90 327.49 434.88 327.70 432.88 C 329.87 432.60 332.00 432.07 334.04 431.22 C 332.30 429.17 329.80 427.62 329.02 424.92 C 329.85 424.13 330.68 423.35 331.53 422.57 C 331.56 420.09 331.15 417.09 333.55 415.50 C 335.29 413.74 337.87 414.83 339.98 415.13 Z"
     id="path104"
     style="fill:#000000;stroke:#000000" />
  <path
     fill="#2f2f2f"
     d=" M 534.98 420.40 C 540.91 420.52 545.48 425.11 550.88 427.07 C 549.32 428.27 547.14 428.93 545.45 427.61 C 541.11 425.03 536.20 423.52 532.12 420.52 C 533.06 420.48 534.02 420.44 534.98 420.40 Z"
     id="path106"
     style="fill:#000000;stroke:#000000" />
  <path
     fill="#222222"
     d=" M 66.06 421.12 C 70.66 423.32 75.55 421.98 80.08 420.35 L 80.95 420.32 C 77.88 422.85 74.44 424.93 70.43 425.44 C 67.95 431.39 64.51 436.83 60.88 442.13 C 62.29 442.74 63.72 443.34 65.11 444.04 C 61.82 444.51 58.55 445.11 55.24 445.38 C 55.20 445.12 55.13 444.59 55.10 444.33 C 59.81 437.91 63.32 430.72 67.22 423.80 C 65.81 423.57 64.40 423.35 62.99 423.12 L 63.62 422.71 C 64.43 422.17 65.24 421.64 66.06 421.12 Z"
     id="path108"
     style="fill:#000000;stroke:#000000" />
  <path
     fill="#0a0a0a"
     d=" M 523.58 420.75 C 524.82 420.68 526.08 420.63 527.33 420.59 C 527.66 420.67 528.32 420.83 528.65 420.91 C 526.93 421.65 525.22 422.42 523.63 423.40 C 523.61 422.74 523.59 421.41 523.58 420.75 Z"
     id="path110"
     style="fill:#000000;stroke:#000000" />
  <path
     fill="#353535"
     d=" M 315.99 425.70 C 318.94 426.86 321.90 427.97 324.91 428.98 C 322.06 431.78 317.78 429.88 314.29 429.75 C 314.30 432.06 314.10 434.40 314.49 436.70 C 315.73 439.45 317.65 441.95 317.96 445.05 C 312.43 443.23 310.08 437.39 309.12 432.13 C 309.09 429.39 305.01 428.58 303.85 431.11 C 303.09 434.45 303.46 437.92 303.59 441.32 C 303.25 441.08 302.58 440.61 302.25 440.37 C 301.51 435.47 301.24 429.44 305.95 426.39 C 309.61 428.96 310.46 433.49 312.39 437.24 C 312.55 433.12 313.10 428.88 315.99 425.70 Z"
     id="path112"
     style="fill:#000000;stroke:#000000" />
  <path
     fill="#0a0a0a"
     d=" M 437.89 430.14 L 438.08 430.92 C 438.41 432.35 438.76 433.78 439.10 435.22 C 439.57 436.69 439.52 438.29 438.63 439.60 C 434.43 447.50 432.45 456.30 428.61 464.36 C 427.00 468.14 424.94 471.71 423.43 475.53 C 422.56 475.96 421.71 476.39 420.87 476.85 C 422.03 470.41 425.14 464.60 427.76 458.67 C 430.92 449.09 435.54 439.97 437.89 430.14 Z"
     id="path114"
     style="fill:#000000;stroke:#000000" />
  <path
     fill="#1a1a1a"
     d=" M 507.09 430.59 C 509.51 430.36 511.94 430.33 514.37 430.39 C 513.94 437.29 514.72 444.10 515.84 450.87 L 514.96 451.29 C 514.37 451.58 513.18 452.15 512.59 452.43 C 512.75 458.03 512.79 463.67 511.91 469.22 C 511.20 465.31 512.14 461.19 510.67 457.42 C 508.29 451.21 510.47 444.39 509.02 438.03 C 508.31 435.56 507.51 433.12 507.09 430.59 Z"
     id="path116"
     style="fill:#000000;stroke:#000000" />
  <path
     fill="#0d0d0d"
     d=" M 48.79 454.20 C 50.32 450.52 53.62 448.01 55.10 444.33 C 55.13 444.59 55.20 445.12 55.24 445.38 C 58.55 445.11 61.82 444.51 65.11 444.04 C 66.74 444.81 68.20 445.90 69.72 446.86 C 69.21 448.40 68.64 449.94 68.11 451.48 C 69.59 451.92 71.07 452.37 72.55 452.81 C 72.40 456.04 72.58 459.48 70.98 462.42 C 69.29 462.68 67.58 462.59 65.88 462.59 C 65.66 463.97 65.48 465.37 65.32 466.77 C 63.16 467.63 60.55 468.11 58.53 466.63 C 56.56 465.06 53.73 465.84 51.83 464.22 C 50.76 463.13 49.84 461.91 48.87 460.74 C 47.58 462.92 46.29 465.12 45.23 467.43 L 44.74 467.25 C 43.85 466.91 42.97 466.58 42.07 466.31 C 42.28 465.42 42.49 464.53 42.70 463.66 C 41.69 463.32 40.69 462.98 39.69 462.64 C 39.08 460.57 38.18 458.62 37.12 456.76 C 41.22 456.55 44.56 453.64 48.79 454.20 Z"
     id="path118"
     style="fill:#000000;stroke:#000000" />
  <path
     fill="#090909"
     d=" M 512.59 452.43 C 513.18 452.15 514.37 451.58 514.96 451.29 C 516.78 451.69 518.61 452.13 520.45 452.49 C 520.68 454.36 520.11 456.65 521.70 458.08 C 522.67 458.44 523.65 458.78 524.66 459.09 C 524.60 462.46 525.45 466.23 523.03 469.03 C 526.00 471.90 528.89 474.86 531.78 477.81 C 529.89 480.77 528.88 484.70 525.18 485.92 C 526.11 487.48 527.78 488.95 527.45 490.96 C 526.81 493.21 525.74 495.32 524.98 497.55 C 524.01 498.25 523.05 498.97 522.10 499.72 C 525.68 501.68 530.11 502.58 532.71 505.96 C 532.37 506.58 531.69 507.83 531.35 508.46 L 530.62 508.49 C 529.54 508.54 528.47 508.59 527.40 508.66 C 527.05 510.58 526.70 512.52 526.36 514.45 C 524.23 514.67 522.09 514.88 519.97 515.11 C 519.77 519.93 517.97 526.05 522.49 529.50 C 522.66 537.07 522.38 544.72 524.62 552.07 C 523.26 551.55 521.94 551.02 520.61 550.49 C 520.02 543.67 521.86 536.44 518.98 530.00 C 517.30 525.74 519.94 520.62 517.15 516.74 C 515.85 518.46 514.61 520.22 513.32 521.95 C 510.87 520.42 508.06 520.30 505.26 520.52 C 504.83 519.00 504.46 517.47 504.10 515.94 C 502.78 515.01 501.44 514.13 500.24 513.09 C 499.94 509.98 502.51 507.54 504.47 505.48 C 508.29 506.15 512.34 507.17 515.95 508.83 C 515.89 505.87 515.31 502.98 514.21 500.24 C 512.82 500.79 511.49 501.47 510.05 501.86 C 508.70 500.96 507.64 499.71 506.52 498.56 C 504.52 498.45 502.52 498.24 500.59 497.72 C 500.53 496.09 500.47 494.47 500.45 492.85 C 499.06 492.17 497.67 491.50 496.29 490.84 C 496.11 488.34 498.87 486.80 498.61 484.38 C 497.51 482.72 496.22 481.11 496.28 479.00 C 497.36 478.61 498.45 478.22 499.55 477.83 C 498.38 474.42 501.56 472.57 503.49 470.37 C 506.36 470.73 509.31 470.68 511.91 469.22 C 512.79 463.67 512.75 458.03 512.59 452.43 Z"
     id="path120"
     style="fill:#000000;stroke:#000000" />
  <path
     fill="#222222"
     d=" M 41.39 466.23 L 42.07 466.31 C 42.97 466.58 43.85 466.91 44.74 467.25 C 42.65 471.11 40.73 475.11 38.04 478.61 C 37.76 477.85 37.18 476.34 36.89 475.58 C 36.81 475.17 36.65 474.34 36.57 473.93 C 38.15 471.34 39.66 468.71 41.39 466.23 Z"
     id="path122"
     style="fill:#000000;stroke:#000000" />
  <path
     fill="#0e0e0e"
     d=" M 28.64 476.43 C 31.41 476.40 34.23 476.51 36.89 475.58 C 37.18 476.34 37.76 477.85 38.04 478.61 C 38.66 480.53 39.73 482.24 40.86 483.90 C 38.95 485.93 38.38 488.52 38.66 491.25 C 35.86 491.92 33.44 493.49 30.88 494.72 C 30.36 495.95 29.82 497.17 29.28 498.40 C 27.69 498.39 26.09 498.40 24.50 498.42 C 23.25 499.85 21.90 501.19 20.51 502.49 C 20.19 501.54 19.87 500.59 19.56 499.65 C 19.51 499.03 19.40 497.78 19.35 497.16 C 18.39 495.86 16.63 494.49 17.80 492.75 C 19.08 490.56 18.64 488.05 18.40 485.66 C 19.41 485.29 20.41 484.92 21.41 484.55 C 21.47 483.04 21.49 481.53 21.70 480.04 C 23.35 478.53 25.74 479.52 27.69 479.70 C 28.02 478.61 28.33 477.52 28.64 476.43 Z"
     id="path124"
     style="fill:#000000;stroke:#000000" />
  <path
     fill="#525252"
     d=" M 369.02 478.57 C 374.03 480.27 376.14 485.99 380.10 489.20 C 382.34 489.50 384.60 489.39 386.86 489.47 C 386.89 492.18 385.75 494.61 384.43 496.91 C 388.17 500.74 392.16 504.33 395.91 508.16 C 395.47 508.47 394.57 509.09 394.13 509.40 C 389.69 505.73 385.45 501.76 381.89 497.23 C 382.33 497.27 383.20 497.35 383.64 497.39 C 384.41 494.95 385.23 492.52 386.02 490.08 C 382.98 490.02 379.92 490.33 377.16 491.67 C 374.13 487.71 371.01 483.78 367.12 480.62 C 366.02 481.01 364.92 481.40 363.83 481.80 C 365.50 480.62 367.22 479.53 369.02 478.57 Z"
     id="path126"
     style="fill:#000000;stroke:#000000" />
  <path
     fill="#1a1a1a"
     d=" M 377.16 491.67 C 379.92 490.33 382.98 490.02 386.02 490.08 C 385.23 492.52 384.41 494.95 383.64 497.39 C 383.20 497.35 382.33 497.27 381.89 497.23 C 380.28 495.40 378.67 493.57 377.16 491.67 Z"
     id="path128"
     style="fill:#000000;stroke:#000000" />
  <path
     fill="#363636"
     d=" M 7.69 516.05 C 12.53 511.21 14.64 504.37 19.56 499.65 C 19.87 500.59 20.19 501.54 20.51 502.49 C 20.99 503.84 19.74 505.05 19.06 506.11 C 15.69 509.92 13.31 514.47 9.90 518.26 C 9.16 517.51 8.43 516.78 7.69 516.05 Z"
     id="path130"
     style="fill:#000000;stroke:#000000" />
  <path
     fill="#0a0a0a"
     d=" M 527.40 508.66 C 528.47 508.59 529.54 508.54 530.62 508.49 C 528.39 510.46 529.31 513.54 529.16 516.13 C 526.24 516.18 523.32 516.18 520.41 516.27 C 520.41 520.76 521.19 525.21 522.49 529.50 C 517.97 526.05 519.77 519.93 519.97 515.11 C 522.09 514.88 524.23 514.67 526.36 514.45 C 526.70 512.52 527.05 510.58 527.40 508.66 Z"
     id="path132"
     style="fill:#000000;stroke:#000000" />
  <path
     fill="#747474"
     d=" M 6.21 521.00 C 6.22 519.22 6.49 517.43 7.69 516.05 C 8.43 516.78 9.16 517.51 9.90 518.26 C 8.74 519.26 7.51 520.18 6.21 521.00 Z"
     id="path134"
     style="fill:#000000;stroke:#000000" />
  <path
     fill="#0d0d0d"
     d=" M 172.62 519.91 C 173.12 518.49 173.37 516.97 174.14 515.67 C 176.82 515.17 179.88 515.01 182.02 517.02 C 183.96 518.74 186.33 516.46 188.40 516.03 C 188.51 517.25 188.65 518.48 188.82 519.71 C 189.44 523.29 189.48 526.94 189.06 530.54 C 190.22 531.14 191.38 531.74 192.54 532.36 C 186.32 540.09 177.03 545.49 173.09 554.91 C 174.23 556.79 175.44 558.70 175.69 560.96 C 172.90 561.85 170.41 563.72 167.40 563.88 C 166.73 561.54 164.61 559.26 165.57 556.72 C 166.36 555.55 167.81 555.64 169.05 555.41 C 170.99 555.51 171.10 553.12 171.73 551.85 C 170.22 551.41 168.70 550.99 167.19 550.56 C 166.55 547.61 164.02 545.15 164.43 542.02 C 165.39 539.96 166.96 538.20 168.63 536.69 C 170.06 535.46 171.62 537.12 173.00 537.56 C 174.25 537.05 175.46 536.37 176.81 536.19 C 178.33 537.26 179.65 538.59 181.04 539.82 C 183.01 538.00 184.68 535.89 186.01 533.57 C 183.72 533.45 181.41 533.57 179.14 533.27 C 176.81 532.07 174.40 531.04 171.73 531.11 C 170.85 530.11 169.96 529.12 169.06 528.15 C 169.68 527.11 170.30 526.08 170.91 525.04 C 170.29 523.59 169.65 522.16 169.06 520.71 C 170.25 520.46 171.44 520.19 172.62 519.91 Z"
     id="path136"
     style="fill:#000000;stroke:#000000" />
  <path
     fill="#2a2a2a"
     d=" M 202.64 516.47 C 203.92 516.53 205.19 516.61 206.47 516.70 C 207.04 520.04 203.68 521.65 201.91 523.94 C 199.37 526.48 197.42 529.88 193.88 531.16 C 194.76 528.72 195.72 526.30 196.99 524.05 C 198.82 521.48 201.05 519.21 202.64 516.47 Z"
     id="path138"
     style="fill:#000000;stroke:#000000" />
  <path
     fill="#0a0a0a"
     d=" M 188.82 519.71 C 189.20 519.94 189.97 520.40 190.36 520.63 C 190.32 523.35 190.40 526.08 191.48 528.65 C 193.66 527.55 195.32 525.77 196.99 524.05 C 195.72 526.30 194.76 528.72 193.88 531.16 C 193.73 531.56 193.45 532.35 193.30 532.75 C 193.11 532.65 192.73 532.45 192.54 532.36 C 191.38 531.74 190.22 531.14 189.06 530.54 C 189.48 526.94 189.44 523.29 188.82 519.71 Z"
     id="path140"
     style="fill:#000000;stroke:#000000" />
  <path
     fill="#0a0a0a"
     d=" M 226.58 541.48 C 228.92 542.21 231.38 543.29 233.86 542.58 C 236.89 541.50 239.92 543.22 243.00 542.49 C 245.69 541.84 247.73 544.01 249.85 545.25 C 245.68 543.48 241.11 544.08 236.73 543.62 C 233.23 543.28 229.73 542.98 226.22 542.87 C 226.31 542.52 226.49 541.83 226.58 541.48 Z"
     id="path142"
     style="fill:#000000;stroke:#000000" />
  <path
     fill="#0b0b0b"
     d=" M 219.31 549.56 C 222.28 548.10 224.54 545.67 226.22 542.87 C 229.73 542.98 233.23 543.28 236.73 543.62 C 241.11 544.08 245.68 543.48 249.85 545.25 L 250.77 545.57 C 250.25 547.20 249.69 548.84 249.14 550.48 C 250.34 550.88 251.54 551.28 252.74 551.70 C 252.57 554.09 252.42 556.50 252.35 558.91 C 249.96 559.06 247.59 559.28 245.22 559.53 C 245.43 561.65 245.65 563.78 245.90 565.91 C 245.63 567.73 244.44 569.20 243.58 570.77 C 241.49 570.82 239.44 570.46 237.73 569.19 C 233.62 574.01 229.17 578.68 225.88 584.11 C 228.64 584.55 231.34 583.82 234.08 583.56 C 236.20 584.01 237.78 585.73 239.39 587.10 C 240.20 589.25 237.93 590.60 236.88 592.14 C 238.60 593.04 240.36 593.88 241.96 595.00 C 243.86 597.85 243.73 601.59 243.33 604.88 C 241.46 605.94 239.24 606.09 237.19 606.61 C 237.90 607.97 239.17 609.21 239.18 610.83 C 238.40 612.13 237.47 613.34 236.59 614.59 C 234.68 614.43 232.62 614.89 230.80 614.20 C 229.63 613.06 228.59 611.81 227.55 610.58 C 225.85 610.50 224.16 610.40 222.48 610.23 C 222.45 607.39 222.24 604.55 222.52 601.73 C 220.89 601.64 219.26 601.56 217.63 601.48 C 216.09 599.47 214.59 596.23 211.50 597.40 C 208.87 600.47 207.27 604.43 203.93 606.93 C 201.17 609.52 198.97 612.61 196.70 615.63 C 194.98 613.79 192.86 612.18 191.79 609.86 C 191.85 607.94 193.85 606.83 194.84 605.36 C 195.75 604.33 195.33 602.80 195.61 601.56 C 198.03 599.94 200.69 601.16 203.20 601.84 C 206.94 597.15 211.91 593.47 215.19 588.44 C 213.44 588.45 211.70 588.52 209.96 588.60 C 208.81 587.51 207.63 586.47 206.55 585.33 C 205.41 583.18 207.56 581.55 208.72 580.03 C 207.74 577.84 206.98 575.48 208.39 573.29 C 210.53 573.09 212.60 573.51 214.37 574.77 C 214.92 573.38 215.16 571.82 216.14 570.65 C 220.59 570.34 223.65 575.20 228.22 574.73 C 229.31 572.79 230.65 570.92 230.86 568.65 C 229.36 568.58 227.86 568.53 226.37 568.49 C 224.42 565.70 222.16 563.16 219.70 560.83 C 218.62 558.54 222.43 557.90 222.68 555.88 C 221.07 554.01 218.99 552.29 219.31 549.56 Z"
     id="path144"
     style="fill:#000000;stroke:#000000" />
  <path
     fill="#090909"
     d=" M 305.53 549.32 C 308.74 548.43 310.92 550.77 312.82 552.97 C 314.39 551.61 316.34 550.80 318.42 551.42 C 320.24 552.96 320.43 555.47 320.81 557.66 C 323.33 557.79 325.82 557.52 328.01 556.18 C 330.08 557.65 332.76 558.18 334.58 560.00 C 334.64 561.07 334.68 562.14 334.69 563.23 C 336.65 563.62 338.57 564.18 340.49 564.76 C 340.43 566.45 340.41 568.16 340.38 569.87 C 338.94 570.85 337.51 571.84 336.09 572.85 C 336.78 574.57 338.02 576.13 338.26 578.02 C 337.02 581.33 333.56 582.90 330.19 582.57 C 329.57 583.87 329.18 585.38 327.93 586.26 C 325.44 586.74 322.89 586.29 320.38 586.30 C 319.53 587.65 318.69 589.02 317.89 590.41 C 314.94 590.10 311.14 591.74 309.06 588.94 C 307.83 587.75 307.19 586.14 306.47 584.63 C 304.76 584.29 303.06 583.87 301.37 583.49 C 300.48 580.08 299.57 575.97 301.80 572.90 C 303.02 571.08 303.02 568.80 303.47 566.73 C 305.11 566.41 306.61 565.69 308.09 564.95 C 306.15 564.39 302.77 564.55 302.49 561.93 C 301.76 559.54 304.75 558.16 304.53 555.88 C 304.33 553.63 304.69 551.41 305.53 549.32 Z"
     id="path146"
     style="fill:#000000;stroke:#000000" />
  <path
     fill="#0a0a0a"
     d=" M 245.22 559.53 C 247.59 559.28 249.96 559.06 252.35 558.91 C 250.82 560.16 249.18 561.27 247.45 562.23 C 247.43 563.65 247.37 565.07 247.25 566.49 L 245.90 565.91 C 245.65 563.78 245.43 561.65 245.22 559.53 Z"
     id="path148"
     style="fill:#000000;stroke:#000000" />
  <path
     fill="#0f0f0f"
     d=" M 274.26 565.26 C 275.34 563.30 276.31 561.28 277.18 559.23 C 282.50 562.76 288.44 565.08 294.51 566.95 C 294.58 570.48 293.81 574.25 295.64 577.49 C 296.97 584.23 300.05 590.52 303.65 596.35 C 305.06 598.37 306.90 600.12 308.96 601.48 C 312.06 601.63 315.51 602.17 318.29 600.43 C 322.35 598.16 326.85 596.96 331.19 595.36 C 334.84 593.95 338.91 595.26 342.60 593.97 C 346.95 592.64 351.63 593.38 355.86 594.81 C 355.68 596.73 354.92 598.63 352.96 599.35 C 348.92 599.88 344.59 598.70 340.71 599.88 C 338.02 602.38 334.26 601.24 330.97 601.55 C 327.89 602.80 325.09 604.63 322.11 606.09 C 320.67 606.72 318.96 608.18 319.51 609.95 C 325.37 618.10 334.93 622.10 342.43 628.43 C 348.15 631.51 351.99 636.88 356.75 641.14 C 360.56 646.47 365.00 651.78 365.96 658.50 C 364.58 660.22 363.44 662.15 363.05 664.35 C 362.94 664.78 362.73 665.65 362.62 666.08 C 362.93 659.01 358.85 652.77 354.93 647.22 C 349.97 639.17 341.92 633.81 334.12 628.81 C 331.55 626.85 329.02 624.83 326.15 623.32 C 324.80 624.02 323.71 626.18 321.96 625.49 C 320.31 624.00 320.54 621.71 320.19 619.73 C 315.97 617.07 312.06 614.02 308.38 610.66 C 301.02 606.09 294.25 599.54 292.05 590.90 C 291.57 585.93 290.20 581.08 288.78 576.32 C 286.56 569.71 277.65 570.77 274.26 565.26 Z"
     id="path150"
     style="fill:#000000;stroke:#000000" />
  <path
     fill="#0b0b0b"
     d=" M 373.52 577.27 C 374.70 576.57 375.87 575.86 377.05 575.16 C 380.08 576.68 382.50 579.45 385.96 580.01 C 388.15 584.12 387.95 588.77 387.53 593.26 C 389.98 591.06 391.59 588.18 393.08 585.29 C 396.42 585.63 399.84 585.99 403.00 584.54 C 405.53 585.52 408.59 588.54 407.41 591.60 C 407.13 592.33 406.56 593.80 406.27 594.53 C 410.94 594.52 415.62 594.99 420.03 596.60 C 422.60 597.18 423.53 594.12 425.09 592.71 C 427.88 592.67 430.67 592.89 433.45 593.27 C 433.65 595.15 433.85 597.04 434.05 598.93 C 438.36 600.86 442.99 602.07 447.13 604.40 C 446.00 604.51 444.87 604.63 443.74 604.76 C 440.49 603.72 436.97 603.80 433.87 602.32 C 431.25 600.96 428.18 601.88 425.47 600.87 C 419.87 598.71 413.76 599.42 407.90 599.69 C 410.04 602.24 412.50 604.49 414.88 606.81 C 414.23 608.48 413.56 610.15 412.99 611.85 C 415.12 611.64 417.59 609.45 419.49 611.30 C 421.35 612.31 421.51 614.41 421.65 616.30 C 423.35 616.76 425.04 617.26 426.74 617.76 C 426.24 620.19 425.53 622.57 425.21 625.04 C 427.03 625.79 429.37 626.08 430.41 627.99 C 430.65 629.78 430.63 631.60 430.72 633.41 C 429.38 633.91 428.05 634.40 426.71 634.86 C 426.31 636.09 425.89 637.31 425.49 638.55 C 423.72 639.33 422.05 640.78 420.01 640.57 C 415.17 639.85 411.73 635.17 412.52 630.31 C 409.91 630.38 407.30 630.48 404.70 630.55 C 404.17 628.77 403.64 626.99 403.17 625.21 C 401.33 625.79 399.68 626.81 398.00 627.72 C 395.45 627.48 393.16 625.91 390.96 624.68 C 390.11 622.12 391.00 619.31 390.36 616.71 C 388.94 615.29 387.17 614.16 385.10 614.83 C 386.12 617.29 387.36 619.65 388.65 621.98 C 386.45 624.86 384.41 627.91 383.24 631.37 C 380.90 632.97 378.44 632.31 376.71 630.20 C 375.20 631.70 373.80 633.35 372.05 634.59 C 370.64 634.67 369.23 634.72 367.82 634.73 C 366.64 633.34 365.48 631.95 364.37 630.52 C 362.34 630.37 360.31 630.26 358.29 630.08 C 358.30 628.31 358.34 626.54 358.44 624.79 C 355.92 623.23 354.57 620.60 353.29 618.05 C 354.45 616.31 355.55 614.54 356.58 612.73 C 358.19 612.24 359.78 611.72 361.39 611.24 C 361.50 610.67 361.73 609.54 361.84 608.98 C 360.36 607.40 358.71 605.92 357.69 604.00 C 357.60 601.80 358.29 599.69 358.63 597.55 C 359.73 597.42 360.84 597.30 361.95 597.19 C 365.25 596.88 368.56 596.65 371.86 596.32 C 369.86 592.68 366.54 589.94 364.95 586.04 C 367.72 584.72 370.64 583.75 373.65 583.19 C 373.62 581.43 373.58 579.68 373.54 577.94 L 373.52 577.27 Z"
     id="path152"
     style="fill:#000000;stroke:#000000" />
  <path
     fill="#0a0a0a"
     d=" M 372.34 582.38 C 372.70 580.88 373.12 579.41 373.54 577.94 C 373.58 579.68 373.62 581.43 373.65 583.19 C 370.64 583.75 367.72 584.72 364.95 586.04 C 366.54 589.94 369.86 592.68 371.86 596.32 C 368.56 596.65 365.25 596.88 361.95 597.19 C 363.16 594.20 366.54 594.74 369.11 594.82 C 367.84 591.69 364.34 589.19 364.65 585.61 C 366.70 583.57 369.62 582.99 372.34 582.38 Z"
     id="path154"
     style="fill:#000000;stroke:#000000" />
  <path
     fill="#0a0a0a"
     d=" M 385.96 580.01 C 388.25 582.01 388.89 584.92 389.53 587.76 C 390.72 586.95 391.90 586.12 393.08 585.29 C 391.59 588.18 389.98 591.06 387.53 593.26 C 387.95 588.77 388.15 584.12 385.96 580.01 Z"
     id="path156"
     style="fill:#000000;stroke:#000000" />
  <path
     fill="#414141"
     d=" M 426.73 590.47 C 430.44 590.16 434.16 592.09 436.13 595.25 C 435.83 596.24 435.56 597.24 435.30 598.26 C 440.06 600.35 445.02 601.97 450.02 603.35 C 453.42 603.39 456.12 605.56 458.87 607.29 C 456.99 608.76 454.45 608.73 452.39 607.68 C 449.34 606.22 445.91 606.13 442.72 605.18 L 443.74 604.76 C 444.87 604.63 446.00 604.51 447.13 604.40 C 442.99 602.07 438.36 600.86 434.05 598.93 C 433.85 597.04 433.65 595.15 433.45 593.27 C 430.67 592.89 427.88 592.67 425.09 592.71 C 425.64 591.96 426.18 591.21 426.73 590.47 Z"
     id="path158"
     style="fill:#000000;stroke:#000000" />
  <path
     fill="#383838"
     d=" M 190.55 607.97 C 190.20 605.45 193.15 605.49 194.84 605.36 C 193.85 606.83 191.85 607.94 191.79 609.86 C 192.86 612.18 194.98 613.79 196.70 615.63 C 198.97 612.61 201.17 609.52 203.93 606.93 C 201.67 611.52 198.49 615.54 195.73 619.82 C 192.67 624.22 189.19 628.90 184.08 630.99 C 184.09 628.03 186.75 626.42 188.24 624.20 C 190.07 621.53 191.62 618.68 193.51 616.05 C 191.07 614.01 189.81 611.15 190.55 607.97 Z"
     id="path160"
     style="fill:#000000;stroke:#000000" />
  <path
     fill="#0c0c0c"
     d=" M 429.22 640.11 C 430.29 638.70 430.62 635.88 432.99 636.53 C 437.40 639.88 441.03 644.12 445.00 647.96 C 447.56 650.36 449.33 653.43 450.87 656.55 C 452.19 656.49 453.66 656.67 454.69 655.63 C 457.75 652.96 462.04 654.60 464.93 656.69 C 467.51 654.34 470.87 654.14 474.19 654.39 C 475.74 656.20 477.39 657.95 478.75 659.94 C 478.95 662.01 477.33 663.46 476.31 665.07 C 477.39 666.77 479.21 668.39 478.68 670.63 C 477.72 672.40 476.05 673.65 474.71 675.13 C 476.28 675.97 478.50 676.19 479.20 678.11 C 480.37 681.07 478.17 684.01 478.52 687.02 C 483.15 692.95 487.71 698.97 491.39 705.56 C 491.97 706.92 492.25 708.38 492.62 709.82 C 491.98 710.10 490.69 710.67 490.04 710.95 C 485.23 704.16 481.63 696.41 475.17 690.94 C 473.33 691.83 471.54 692.80 469.75 693.77 C 468.15 691.83 466.65 689.81 465.30 687.70 C 463.43 687.27 461.57 686.83 459.79 686.14 C 458.80 683.88 460.44 680.54 458.09 679.10 C 455.73 680.65 453.65 683.23 450.52 682.68 C 450.19 681.53 449.87 680.38 449.55 679.25 C 446.29 680.54 442.49 681.40 439.10 680.23 C 436.37 678.73 437.56 675.26 437.29 672.73 C 434.99 670.88 431.37 668.98 432.78 665.45 C 434.56 665.42 436.34 665.38 438.13 665.36 C 438.88 663.05 439.93 660.85 441.94 659.39 C 443.73 660.25 445.55 661.03 447.41 661.77 C 447.88 660.49 447.72 659.18 446.68 658.26 C 444.56 655.71 442.46 653.14 440.37 650.57 C 437.17 646.52 431.97 644.57 429.22 640.11 Z"
     id="path162"
     style="fill:#000000;stroke:#000000" />
  <path
     fill="#0a0a0a"
     d=" M 356.75 641.14 C 361.37 645.92 365.61 651.69 366.99 658.32 C 368.85 657.52 369.99 655.81 371.46 654.51 C 373.32 654.38 375.20 654.55 377.08 654.60 C 377.35 655.71 377.71 656.81 378.16 657.88 C 380.03 659.06 382.32 658.52 384.41 658.71 C 384.74 662.29 383.12 665.62 383.20 669.19 C 381.08 669.42 378.90 669.68 377.24 671.15 C 375.45 672.66 372.96 672.01 370.84 672.24 C 370.95 673.03 371.18 674.60 371.30 675.38 C 374.70 675.91 378.56 678.26 377.22 682.30 C 379.33 684.13 381.10 686.29 382.64 688.62 C 384.22 688.83 385.83 689.13 387.32 689.77 C 388.76 690.71 388.24 692.68 387.91 694.08 C 387.74 692.75 387.61 691.43 387.51 690.11 L 386.58 689.88 C 382.45 689.22 379.06 686.69 375.88 684.16 C 376.05 682.37 376.60 680.54 376.16 678.77 C 374.41 677.16 371.72 677.14 369.65 676.01 C 368.04 674.15 368.60 671.52 368.67 669.29 C 371.85 670.52 375.49 671.74 378.64 669.68 C 382.70 668.43 383.23 663.95 383.88 660.40 C 381.98 659.88 380.03 659.50 378.20 658.79 C 376.24 657.96 375.65 654.58 373.17 655.19 C 370.97 655.92 369.64 658.13 368.03 659.70 C 367.51 659.40 366.47 658.80 365.96 658.50 C 365.00 651.78 360.56 646.47 356.75 641.14 Z"
     id="path164"
     style="fill:#000000;stroke:#000000" />
  <path
     fill="#0b0b0b"
     d=" M 368.03 659.70 C 369.64 658.13 370.97 655.92 373.17 655.19 C 375.65 654.58 376.24 657.96 378.20 658.79 C 380.03 659.50 381.98 659.88 383.88 660.40 C 383.23 663.95 382.70 668.43 378.64 669.68 C 375.49 671.74 371.85 670.52 368.67 669.29 C 368.60 671.52 368.04 674.15 369.65 676.01 C 371.72 677.14 374.41 677.16 376.16 678.77 C 376.60 680.54 376.05 682.37 375.88 684.16 C 379.06 686.69 382.45 689.22 386.58 689.88 C 386.64 693.02 386.48 696.16 386.49 699.32 C 384.98 699.86 383.48 700.41 381.98 700.98 C 382.85 702.04 384.09 702.57 385.43 702.86 C 385.79 705.60 386.39 708.31 386.55 711.08 C 385.47 711.30 384.39 711.52 383.31 711.75 C 383.71 715.08 383.40 718.43 383.57 721.78 C 379.41 722.14 374.64 723.88 370.92 721.22 C 369.54 720.38 367.90 720.18 366.38 719.74 C 366.75 716.41 366.54 713.08 364.52 710.28 C 366.16 709.10 366.80 707.33 366.91 705.38 C 365.74 705.00 364.57 704.64 363.40 704.31 C 363.00 703.13 362.62 701.97 362.25 700.81 C 360.71 699.93 359.14 699.06 357.82 697.88 C 357.00 695.89 357.72 693.66 357.66 691.58 C 353.71 691.06 351.85 687.30 349.09 684.94 C 351.41 681.89 351.77 678.20 351.37 674.51 C 353.31 674.14 355.24 673.71 357.19 673.35 C 357.49 671.96 357.89 670.59 358.45 669.30 C 360.47 669.49 362.50 669.66 364.53 669.83 C 364.49 667.89 363.80 666.09 363.05 664.35 C 363.44 662.15 364.58 660.22 365.96 658.50 C 366.47 658.80 367.51 659.40 368.03 659.70 Z"
     id="path166"
     style="fill:#000000;stroke:#000000" />
  <path
     fill="#6f6f6f"
     d=" M 492.62 709.82 C 494.92 712.08 497.23 714.52 497.80 717.84 C 493.44 718.35 491.88 713.97 490.04 710.95 C 490.69 710.67 491.98 710.10 492.62 709.82 Z"
     id="path168"
     style="fill:#000000;stroke:#000000" />
  <path
     fill="#090909"
     d=" M 369.90 750.19 C 372.76 741.77 370.45 732.78 371.63 724.13 C 372.93 725.22 374.22 726.36 375.53 727.47 C 375.51 735.79 375.50 744.12 375.54 752.44 C 377.69 751.40 379.65 749.82 382.02 749.29 C 384.25 750.65 385.87 752.73 387.10 755.00 C 388.98 754.12 390.91 753.35 393.01 753.18 C 394.03 754.58 395.07 755.98 396.09 757.40 C 397.14 757.48 398.20 757.57 399.26 757.67 C 400.07 758.79 400.94 759.86 401.72 761.02 C 400.88 764.39 397.43 766.66 397.19 770.33 C 395.80 770.70 394.43 771.11 393.07 771.52 C 393.55 773.02 394.11 774.50 394.67 775.98 C 393.04 778.27 393.70 781.08 393.70 783.70 C 390.27 783.97 386.85 783.32 383.44 783.50 C 381.07 785.10 378.69 790.75 375.61 787.30 C 374.10 785.38 373.00 783.19 371.86 781.06 C 369.96 782.04 368.34 783.43 366.84 784.95 C 365.07 786.45 362.20 785.73 360.06 785.44 C 357.83 782.97 355.72 780.41 353.32 778.11 C 353.12 775.40 354.30 772.99 355.68 770.76 C 351.74 770.64 348.68 767.78 344.83 767.11 C 343.98 764.46 342.85 761.80 342.61 759.03 C 343.47 757.14 345.76 757.63 347.42 757.21 C 347.37 755.27 347.31 753.35 347.34 751.43 C 348.96 750.27 351.03 749.22 351.16 746.97 C 351.28 744.73 352.62 742.13 355.23 742.40 C 357.74 742.54 359.71 740.87 361.99 740.19 C 364.14 740.97 366.12 742.17 368.32 742.86 C 369.13 745.23 369.62 747.69 369.90 750.19 Z"
     id="path170"
     style="fill:#000000;stroke:#000000" />
  <path
     fill="#2e2e2e"
     d=" M 221.19 769.76 C 222.93 764.08 224.33 758.08 227.18 752.87 C 227.48 754.04 227.78 755.22 228.09 756.40 C 229.31 759.76 226.57 762.67 225.86 765.83 C 223.77 773.19 220.59 780.23 218.88 787.69 C 218.10 789.47 216.79 790.97 215.30 792.22 C 215.77 784.46 218.51 777.00 221.19 769.76 Z"
     id="path172"
     style="fill:#000000;stroke:#000000" />
  <path
     fill="#e4e4e4"
     d=" M 366.84 784.95 C 368.34 783.43 369.96 782.04 371.86 781.06 C 373.00 783.19 374.10 785.38 375.61 787.30 C 374.71 787.60 373.82 787.93 372.90 788.17 C 372.08 788.23 370.43 788.35 369.61 788.41 C 369.25 790.56 368.86 792.71 368.45 794.86 C 367.35 794.68 366.26 794.51 365.17 794.35 C 365.82 794.14 367.11 793.71 367.75 793.49 C 368.19 790.60 367.88 787.68 366.84 784.95 Z"
     id="path174"
     style="fill:#000000;stroke:#000000" />
  <path
     fill="#0d0d0d"
     d=" M 368.45 794.86 C 368.86 792.71 369.25 790.56 369.61 788.41 C 370.43 788.35 372.08 788.23 372.90 788.17 C 373.79 791.48 371.35 794.59 371.52 797.94 C 371.43 806.98 371.50 816.02 371.57 825.07 C 374.50 825.55 377.09 827.03 379.66 828.43 C 379.66 830.77 379.66 833.12 379.63 835.47 C 379.08 835.78 377.96 836.39 377.41 836.70 C 377.36 838.38 377.32 840.06 377.29 841.76 C 375.42 842.36 373.55 842.98 371.69 843.60 C 371.20 845.36 370.71 847.14 370.23 848.92 C 369.94 846.82 369.66 844.73 369.38 842.64 C 367.74 842.41 366.10 842.20 364.46 842.04 C 365.37 837.98 362.07 835.14 360.16 832.01 C 360.78 830.98 361.40 829.96 362.04 828.95 C 360.16 826.15 358.37 823.24 357.35 820.01 C 359.56 819.14 361.62 817.95 363.14 816.09 C 364.64 814.34 366.84 816.21 368.44 816.78 C 370.17 813.33 368.58 809.58 368.53 805.97 C 366.80 806.76 364.74 808.69 362.85 807.21 C 360.88 805.42 358.21 805.66 355.75 805.55 C 354.63 803.59 353.02 802.03 351.43 800.48 C 350.78 798.71 352.06 797.39 353.21 796.26 C 353.53 794.63 353.46 792.72 355.10 791.78 C 357.54 791.55 360.05 791.01 362.50 791.36 C 363.53 792.21 364.32 793.31 365.17 794.35 C 366.26 794.51 367.35 794.68 368.45 794.86 Z"
     id="path176"
     style="fill:#000000;stroke:#000000" />
  <path
     fill="#474747"
     d=" M 377.41 836.70 C 377.96 836.39 379.08 835.78 379.63 835.47 C 377.80 837.90 379.32 840.64 379.77 843.26 C 377.24 843.67 374.78 844.34 372.30 844.96 C 373.73 851.58 373.80 858.37 373.41 865.11 C 373.57 866.46 372.57 867.31 371.63 868.07 C 370.49 863.31 371.10 858.32 369.63 853.64 C 368.70 850.63 368.50 847.48 368.48 844.35 C 367.05 843.74 365.50 843.26 364.46 842.04 C 366.10 842.20 367.74 842.41 369.38 842.64 C 369.66 844.73 369.94 846.82 370.23 848.92 C 370.71 847.14 371.20 845.36 371.69 843.60 C 373.55 842.98 375.42 842.36 377.29 841.76 C 377.32 840.06 377.36 838.38 377.41 836.70 Z"
     id="path178"
     style="fill:#000000;stroke:#000000" />
</svg>
